<?xml version="1.0" encoding="UTF-8"?>
<!-- Generator: visioncortex VTracer -->
<svg id="svg" version="1.1" xmlns="http://www.w3.org/2000/svg" style="display: block;" viewBox="0 0 320 600"><path d="M0 0 C27.13429364 21.04116266 43.3386318 49.52205287 49.05791378 83.24270725 C49.57257485 87.51260582 49.65362649 91.6538333 49.63807678 95.94847107 C49.63935842 97.25601218 49.63935842 97.25601218 49.64066595 98.58996826 C49.64230728 101.49798832 49.63682148 104.40595014 49.63134766 107.31396484 C49.63106547 109.40364073 49.63122414 111.49331672 49.63179016 113.58299255 C49.6320769 119.24769533 49.62620007 124.91237691 49.6192162 130.57707477 C49.61296216 136.50011764 49.61237724 142.423161 49.6111908 148.34620667 C49.60808353 159.55867348 49.59987828 170.77113053 49.58984131 181.98359305 C49.5786614 194.75013754 49.57316498 207.51668249 49.56814587 220.28323066 C49.55769518 246.54160905 49.54010743 272.79997878 49.51782227 299.05834961 C50.33186523 299.25315918 51.1459082 299.44796875 51.98461914 299.64868164 C53.05776367 299.9102002 54.1309082 300.17171875 55.23657227 300.44116211 C56.29811523 300.69784668 57.3596582 300.95453125 58.45336914 301.21899414 C64.90630636 302.98645735 69.86810905 305.24584337 73.51782227 311.05834961 C76.36669425 316.63843714 76.97368909 321.05955837 76.95141602 327.28100586 C76.95665787 328.14471298 76.96189972 329.0084201 76.96730042 329.89830017 C76.97369212 331.71441579 76.97242079 333.53057296 76.96386719 335.34667969 C76.95533549 338.11655474 76.98419188 340.88437978 77.01586914 343.65405273 C77.01748094 345.4255365 77.01690404 347.19702388 77.01391602 348.96850586 C77.03076698 350.20154198 77.03076698 350.20154198 77.04795837 351.45948792 C76.98367912 356.78893844 76.03807189 359.81974043 72.51782227 364.05834961 C56.93031865 374.96331686 31.83503547 373.19634333 13.78344727 373.10913086 C12.29532978 373.10504418 10.8072112 373.10133896 9.3190918 373.09802246 C5.71864531 373.08918421 2.11824113 373.0752242 -1.48217773 373.05834961 C-1.47425862 373.96595126 -1.46633951 374.87355291 -1.45818043 375.80865765 C-1.26661423 397.88334999 -1.09177267 419.95811941 -0.93558979 442.03309155 C-0.85965706 452.70834239 -0.77804538 463.38349363 -0.68310547 474.05859375 C-0.60037899 483.36202358 -0.528266 492.66546447 -0.46894521 501.96907407 C-0.43715764 506.89616201 -0.4000237 511.82307983 -0.35018349 516.75002098 C-0.30344835 521.38657742 -0.27089579 526.02301631 -0.24925613 530.65975571 C-0.23880426 532.36216956 -0.22315443 534.0645606 -0.20193672 535.76687431 C-0.17374959 538.09057125 -0.16423719 540.41362664 -0.15937805 542.73747253 C-0.14923833 544.03812243 -0.13909861 545.33877234 -0.12865162 546.67883587 C-0.50850047 550.30998038 -1.29421507 552.17060549 -3.48217773 555.05834961 C-7.9938349 557.88668014 -13.32781498 557.38952484 -18.48217773 557.37084961 C-19.37163086 557.38696289 -20.26108398 557.40307617 -21.17749023 557.41967773 C-26.11020028 557.42335886 -29.48248181 557.26904302 -33.48217773 554.05834961 C-35.90834336 551.63218399 -35.7195659 550.37289514 -35.74034035 547.06285322 C-35.73451467 546.36441726 -35.72868899 545.6659813 -35.72268677 544.94638062 C-35.72439562 544.20554879 -35.72610447 543.46471696 -35.7278651 542.70143569 C-35.7311729 540.20621513 -35.72013528 537.71126044 -35.70922852 535.21606445 C-35.70866468 533.43254096 -35.70898042 531.649017 -35.71011353 529.86549377 C-35.71068912 525.01242084 -35.69890149 520.15944606 -35.68496561 515.30639601 C-35.67249256 510.23882509 -35.67129046 505.17125211 -35.66891479 500.10366821 C-35.66268993 490.5024443 -35.64626552 480.90126573 -35.62621582 471.30006182 C-35.59971601 458.32951272 -35.58889231 445.35895129 -35.57721138 432.38838196 C-35.55838562 411.94500384 -35.51854665 391.50172146 -35.48217773 371.05834961 C-61.88217773 371.05834961 -88.28217773 371.05834961 -115.48217773 371.05834961 C-115.37518555 379.1575293 -115.26819336 387.25670898 -115.15795898 395.60131836 C-115.09703557 400.72826404 -115.03700983 405.85518864 -114.98022461 410.98217773 C-114.88998014 419.12237281 -114.79684474 427.26243898 -114.68310547 435.40234375 C-114.59143654 441.9639028 -114.51569737 448.52552049 -114.44972801 455.08739662 C-114.42192817 457.5925166 -114.38876439 460.09758291 -114.35018349 462.60256004 C-114.29711042 466.1076084 -114.26300602 469.6123617 -114.23339844 473.11767578 C-114.20319359 474.67566139 -114.20319359 474.67566139 -114.17237854 476.26512146 C-114.13268953 485.12471567 -114.13268953 485.12471567 -117.48217773 489.05834961 C-121.90483385 491.78950478 -126.94364843 491.39013954 -131.98217773 491.37084961 C-132.82393555 491.38696289 -133.66569336 491.40307617 -134.53295898 491.41967773 C-139.35961228 491.42347825 -142.55265094 491.16418713 -146.48217773 488.05834961 C-148.48217773 486.05834961 -148.48217773 486.05834961 -148.72827339 484.04749107 C-148.72550801 482.80030517 -148.72550801 482.80030517 -148.72268677 481.52792358 C-148.7254361 480.57437485 -148.72818542 479.62082611 -148.73101807 478.63838196 C-148.72023224 477.06421761 -148.72023224 477.06421761 -148.70922852 475.45825195 C-148.70952057 474.35580643 -148.70981262 473.2533609 -148.71011353 472.11750793 C-148.70871595 468.45968864 -148.69313454 464.80207099 -148.67749023 461.14428711 C-148.67376163 458.61365877 -148.67091394 456.08302898 -148.66891479 453.55239868 C-148.66204884 447.56358455 -148.64627286 441.57485749 -148.62621582 435.58607829 C-148.60387843 428.76875954 -148.59286884 421.95143736 -148.58282495 415.13409114 C-148.56190718 401.10880361 -148.52671773 387.08358059 -148.48217773 373.05834961 C-149.91420029 373.06816864 -149.91420029 373.06816864 -151.37515259 373.07818604 C-154.98972043 373.10117707 -158.60428213 373.11529254 -162.21890259 373.12701416 C-163.76973566 373.13321821 -165.32056169 373.14168419 -166.87136841 373.15264893 C-185.07239688 373.27791409 -203.3193579 372.69974046 -220.48217773 366.05834961 C-221.55024658 365.65567871 -221.55024658 365.65567871 -222.63989258 365.24487305 C-225.22549029 363.57961929 -226.17298083 361.82110353 -227.48217773 359.05834961 C-227.93041992 356.46557617 -227.93041992 356.46557617 -228.02905273 353.69897461 C-228.07006104 352.67344482 -228.11106934 351.64791504 -228.15332031 350.59130859 C-228.17934326 349.50793213 -228.20536621 348.42455566 -228.23217773 347.30834961 C-228.28184692 345.63784546 -228.28184692 345.63784546 -228.33251953 343.93359375 C-229.0303228 315.54466497 -229.0303228 315.54466497 -223.48217773 309.05834961 C-217.93603188 303.37856169 -211.03880938 301.03469942 -203.48217773 299.05834961 C-202.82217773 299.05834961 -202.16217773 299.05834961 -201.48217773 299.05834961 C-201.48402132 298.00627571 -201.48586491 296.95420181 -201.48776436 295.87024689 C-201.53224881 270.21983932 -201.56506969 244.56943677 -201.58580208 218.91899872 C-201.59609569 206.51442592 -201.61011929 194.10987866 -201.63305664 181.70532227 C-201.65304928 170.88807708 -201.66590807 160.0708504 -201.67035472 149.25358725 C-201.67295218 143.53089702 -201.67901713 137.80825974 -201.69363785 132.08558655 C-201.70731472 126.68809528 -201.71138014 121.29067826 -201.7083931 115.89317131 C-201.70893877 113.92289258 -201.71285554 111.95261111 -201.72058868 109.98234749 C-201.77436916 95.5603565 -201.43163045 81.1406271 -197.35717773 67.18334961 C-197.14617432 66.44777832 -196.9351709 65.71220703 -196.71777344 64.9543457 C-187.03381563 32.76551168 -164.39462375 5.6975754 -134.91967773 -10.25415039 C-92.41386595 -32.3835209 -38.528437 -28.79042292 0 0 Z M-143.13061523 23.84741211 C-145.48217773 26.05834961 -145.48217773 26.05834961 -148.47827148 28.48803711 C-165.46844126 43.02578966 -175.47185521 67.33349214 -178.48217773 89.05834961 C-178.57106692 91.9270414 -178.61303455 94.77038138 -178.60243225 97.63839722 C-178.60328668 98.4888191 -178.6041411 99.33924099 -178.60502142 100.21543324 C-178.60666505 103.05746213 -178.60117315 105.89943165 -178.59570312 108.74145508 C-178.59542099 110.78172301 -178.59557951 112.82199104 -178.59614563 114.86225891 C-178.59643256 120.39685996 -178.5905526 125.93143935 -178.58357167 131.46603537 C-178.57732086 137.25161727 -178.57673296 143.03719967 -178.57554626 148.82278442 C-178.57243805 159.77674808 -178.56423152 170.73070177 -178.55419677 181.68466103 C-178.54301982 194.15614559 -178.53752119 206.62763063 -178.53250134 219.09911895 C-178.5220485 244.75220156 -178.50425749 270.4052746 -178.48217773 296.05834961 C-172.54217773 295.39834961 -166.60217773 294.73834961 -160.48217773 294.05834961 C-160.48217773 256.43834961 -160.48217773 218.81834961 -160.48217773 180.05834961 C-149.26217773 180.05834961 -138.04217773 180.05834961 -126.48217773 180.05834961 C-126.48217773 190.94834961 -126.48217773 201.83834961 -126.48217773 213.05834961 C-120.87217773 213.05834961 -115.26217773 213.05834961 -109.48217773 213.05834961 C-109.15217773 203.15834961 -108.82217773 193.25834961 -108.48217773 183.05834961 C-98.8471436 187.77951633 -89.36040966 192.71005583 -79.91967773 197.80834961 C-68.68027471 203.8658989 -57.37352149 209.78600985 -46.01956177 215.62609863 C-44.24643466 216.53834215 -42.47403216 217.45199547 -40.70236206 218.36706543 C-38.21188286 219.65258354 -35.71861778 220.93251515 -33.22436523 222.21069336 C-32.09350746 222.79550728 -32.09350746 222.79550728 -30.93980408 223.39213562 C-27.39268175 225.36643853 -27.39268175 225.36643853 -23.48217773 226.05834961 C-22.42741257 220.8976647 -22.35248409 215.96122954 -22.38452148 210.72241211 C-22.38593643 209.84306 -22.38735138 208.96370789 -22.3888092 208.05770874 C-22.39437896 205.26622019 -22.40692583 202.47481367 -22.41967773 199.68334961 C-22.42469664 197.78361119 -22.42925887 195.8838715 -22.43334961 193.98413086 C-22.44348494 189.34214722 -22.46306616 184.70033958 -22.48217773 180.05834961 C-12.25217773 180.05834961 -2.02217773 180.05834961 8.51782227 180.05834961 C8.51258545 183.47621826 8.50734863 186.89408691 8.50195312 190.41552734 C8.48541996 201.67923122 8.47430131 212.94293603 8.46601009 224.20664883 C8.46084734 231.03913935 8.45380503 237.8716184 8.44238281 244.70410156 C8.4313752 251.29170265 8.42554603 257.87929492 8.42294502 264.46690559 C8.42109026 266.9864324 8.41746869 269.50595852 8.41209221 272.02548027 C8.40488551 275.54092726 8.40383117 279.05632422 8.40429688 282.57177734 C8.4007016 283.62481552 8.39710632 284.6778537 8.3934021 285.76280212 C8.3954641 287.19106323 8.3954641 287.19106323 8.39756775 288.6481781 C8.39664596 289.48055717 8.39572416 290.31293623 8.39477444 291.1705389 C8.31020012 293.07060005 8.31020012 293.07060005 9.51782227 294.05834961 C12.37310834 294.45873261 15.21518713 294.81017231 18.08032227 295.12084961 C18.88663086 295.21172852 19.69293945 295.30260742 20.52368164 295.39624023 C22.52129604 295.6208241 24.51950787 295.84008197 26.51782227 296.05834961 C27.58375099 291.71895162 27.66343438 287.49548303 27.65826416 283.05462646 C27.66123528 282.25380559 27.6642064 281.45298472 27.66726756 280.62789655 C27.6759326 277.946826 27.677461 275.26580023 27.67895508 272.5847168 C27.68358509 270.66084702 27.68861 268.73697815 27.69400024 266.81311035 C27.70711534 261.58515933 27.71356838 256.35722115 27.7180109 251.12925625 C27.72094526 247.85746273 27.72505093 244.58567269 27.72951508 241.31388092 C27.7431925 231.06175845 27.75285591 220.80964396 27.75671697 210.557513 C27.76118755 198.75347682 27.77868785 186.94955703 27.80771756 175.14555621 C27.82941053 166.00471093 27.83942542 156.86389819 27.84075809 147.72302747 C27.84180139 142.27254843 27.84760658 136.82217875 27.8655777 131.37172699 C27.88218867 126.23349352 27.88415138 121.09545003 27.87543869 115.9571991 C27.87467502 114.08408851 27.87892108 112.21096717 27.88889694 110.337883 C28.04282551 79.60137285 19.75055291 52.80770387 -1.48217773 30.05834961 C-2.12413086 29.32487305 -2.76608398 28.59139648 -3.42749023 27.83569336 C-18.69243375 11.21606871 -43.38948998 0.42051449 -65.60644531 -1.16455078 C-94.28867362 -2.17037307 -121.65898712 3.40878329 -143.13061523 23.84741211 Z M-163.98217773 312.99584961 C-164.80430756 313.07516724 -165.62643738 313.15448486 -166.47348022 313.23620605 C-186.29613299 314.45791843 -186.29613299 314.45791843 -204.48217773 321.05834961 C-205.60379895 322.92091119 -205.60379895 322.92091119 -205.82983398 325.09741211 C-205.9576123 325.89308594 -206.08539063 326.68875977 -206.21704102 327.50854492 C-206.66607504 331.82687952 -206.89056405 336.09217563 -206.91967773 340.43334961 C-206.95254883 341.32151367 -206.98541992 342.20967773 -207.01928711 343.12475586 C-207.02637695 343.97682617 -207.0334668 344.82889648 -207.04077148 345.70678711 C-207.05422607 346.47168457 -207.06768066 347.23658203 -207.08154297 348.0246582 C-206.62241139 350.28063944 -206.62241139 350.28063944 -204.32543945 351.84423828 C-200.97725447 353.27395869 -199.03234619 353.23319172 -195.43139648 352.83569336 C-194.28461426 352.71693848 -193.13783203 352.59818359 -191.95629883 352.47583008 C-190.80983887 352.33806152 -189.66337891 352.20029297 -188.48217773 352.05834961 C-187.46849121 351.94507324 -186.45480469 351.83179688 -185.41040039 351.71508789 C-182.36964238 351.36678743 -179.33239357 350.99468579 -176.29467773 350.62084961 C-167.3265811 349.55745434 -158.36090676 348.63651892 -149.35717773 347.93334961 C-148.4197876 347.85802002 -147.48239746 347.78269043 -146.51660156 347.70507812 C-124.56578492 346.07194765 -102.60426992 345.87015406 -80.60571289 345.87304688 C-77.37811617 345.8731276 -74.15066302 345.86625103 -70.9230957 345.85253906 C-53.30212713 345.77897542 -35.74244947 345.97617178 -18.14624023 346.97631836 C-17.42170906 347.0174003 -16.69717789 347.05848225 -15.95069122 347.1008091 C2.84148717 348.19210989 21.66998767 349.73917582 40.26831055 352.67358398 C46.74374587 353.54395689 46.74374587 353.54395689 52.92211914 351.93701172 C55.17776792 349.28137871 55.03476835 347.45542838 55.04907227 343.99975586 C55.05422852 342.80930664 55.05938477 341.61885742 55.06469727 340.39233398 C55.04922852 339.14774414 55.03375977 337.9031543 55.01782227 336.62084961 C55.03329102 335.38012695 55.04875977 334.1394043 55.06469727 332.86108398 C55.05954102 331.6693457 55.05438477 330.47760742 55.04907227 329.24975586 C55.04230469 327.6130896 55.04230469 327.6130896 55.03540039 325.94335938 C54.39682078 322.38388047 53.35901098 321.23525773 50.51782227 319.05834961 C47.64517236 318.18101857 45.02157999 317.56336181 42.08032227 317.05834961 C41.19723389 316.89810303 40.31414551 316.73785645 39.40429688 316.57275391 C-27.06721853 305.24194422 -97.08244138 306.45910541 -163.98217773 312.99584961 Z " transform="translate(235.482177734375,32.941650390625)" style="fill: #FE7E07;"/><path d="M0 0 C17.15010646 17.83087405 22.72857227 39.5114494 22.56640625 63.63671875 C22.56266906 65.2815229 22.55982543 66.92632929 22.55783081 68.57113647 C22.55024992 72.86845205 22.53065007 77.16562918 22.50842285 81.46289062 C22.48784397 85.86065804 22.47880352 90.25844816 22.46875 94.65625 C22.44739811 103.26178179 22.4133304 111.86720172 22.37109375 120.47265625 C18.32944236 120.50181356 14.28781825 120.51950798 10.24609375 120.53515625 C9.10398438 120.54353516 7.961875 120.55191406 6.78515625 120.56054688 C5.12226563 120.56538086 5.12226563 120.56538086 3.42578125 120.5703125 C2.40983887 120.57554932 1.39389648 120.58078613 0.34716797 120.58618164 C-2.72005351 120.46917934 -5.61523759 120.04042042 -8.62890625 119.47265625 C-8.7722452 113.60109627 -8.91463311 107.72951428 -9.05615234 101.85791016 C-9.10439548 99.86181012 -9.15289527 97.86571627 -9.20166016 95.86962891 C-9.27183967 92.99513321 -9.34108623 90.12061629 -9.41015625 87.24609375 C-9.44296692 85.91449722 -9.44296692 85.91449722 -9.47644043 84.55599976 C-9.58036321 80.19359528 -9.65387945 75.8367231 -9.62890625 71.47265625 C-32.33783023 82.67880161 -54.65650245 94.60035323 -76.79296875 106.89453125 C-77.80093506 107.45140625 -78.80890137 108.00828125 -79.84741211 108.58203125 C-81.78871346 109.65476746 -83.72716249 110.73268599 -85.66235352 111.81640625 C-86.53174561 112.2959375 -87.4011377 112.77546875 -88.296875 113.26953125 C-89.44579224 113.90906738 -89.44579224 113.90906738 -90.61791992 114.56152344 C-92.62890625 115.47265625 -92.62890625 115.47265625 -95.62890625 115.47265625 C-95.95890625 105.24265625 -96.28890625 95.01265625 -96.62890625 84.47265625 C-101.90890625 84.47265625 -107.18890625 84.47265625 -112.62890625 84.47265625 C-112.62890625 96.35265625 -112.62890625 108.23265625 -112.62890625 120.47265625 C-123.84890625 120.47265625 -135.06890625 120.47265625 -146.62890625 120.47265625 C-146.78934149 103.18575943 -146.78934149 103.18575943 -146.82421875 95.70898438 C-146.84795566 90.64476356 -146.8757618 85.58083711 -146.93066406 80.5168457 C-146.97473479 76.42542274 -146.99816948 72.33431623 -147.00841522 68.24267387 C-147.01569861 66.69645658 -147.02991384 65.15025283 -147.05182648 63.60417366 C-147.39090642 38.64369746 -139.64852313 16.40772973 -122.30859375 -1.93359375 C-87.24213528 -35.87547192 -34.30963784 -32.98415406 0 0 Z " transform="translate(221.62890625,76.52734375)" style="fill: #FE7E07;"/><path d="M0 0 C0 20.46 0 40.92 0 62 C-4.06584068 60.64471977 -7.26020027 59.48035898 -10.94921875 57.53125 C-11.87081787 57.04720703 -12.79241699 56.56316406 -13.74194336 56.06445312 C-14.71397705 55.54818359 -15.68601074 55.03191406 -16.6875 54.5 C-17.69756104 53.96826172 -18.70762207 53.43652344 -19.74829102 52.88867188 C-22.83435772 51.26317712 -25.91731323 49.63189358 -29 48 C-31.66905021 46.59190373 -34.33881838 45.18518322 -37.0090332 43.77929688 C-38.57599412 42.9538344 -40.14228818 42.12710422 -41.70776367 41.29882812 C-46.44022159 38.79934691 -51.20545537 36.3783536 -56 34 C-55.8269043 31.69555664 -55.8269043 31.69555664 -55 29 C-52.75708008 27.33764648 -52.75708008 27.33764648 -49.76953125 25.87109375 C-48.66625488 25.31655518 -47.56297852 24.7620166 -46.42626953 24.19067383 C-45.22169667 23.60624755 -44.01710645 23.02185705 -42.8125 22.4375 C-40.96843188 21.51805307 -39.12770965 20.592124 -37.2869873 19.66600037 C-36.03614869 19.03728261 -34.78426565 18.41063864 -33.53137207 17.786026 C-27.48596086 14.76779127 -21.5464861 11.56675953 -15.625 8.3125 C-14.72370361 7.81999756 -13.82240723 7.32749512 -12.89379883 6.82006836 C-9.54831011 4.98523824 -6.22909954 3.13810756 -2.9609375 1.16796875 C-1 0 -1 0 0 0 Z " transform="translate(197,172)" style="fill: #FE7E07;"/><path d="M0 0 C0.33 0.99 0.66 1.98 1 3 C-1.97 3 -4.94 3 -8 3 C-7 1 -7 1 -5.125 0.375 C-3 0 -3 0 0 0 Z " transform="translate(163,50)" style="fill: #FE8412;"/></svg>