<svg id="canvas" height="100%" xmlns="http://www.w3.org/2000/svg" version="1.1"
    xmlns:xlink="http://www.w3.org/1999/xlink" xmlns:svgjs="http://svgjs.dev/svgjs"
    viewBox="0 0 600 600">
    <style>
        :root {
      --fill-1: #593A1C;
      --fill-2: #754619;
      --fill-3: #905115;
      --fill-4: #B76211;
      --fill-5: #DD720C;
      --fill-6: #F17B09;
      --fill-7: #F87E08;
      --fill-8: #FB7F08;
      --fill-9: #FE8007;
        }
        .fill-1 { fill: var(--fill-1); }
        .fill-2 { fill: var(--fill-2); }
        .fill-3 { fill: var(--fill-3); }
        .fill-4 { fill: var(--fill-4); }
        .fill-5 { fill: var(--fill-5); }
        .fill-6 { fill: var(--fill-6); }
        .fill-7 { fill: var(--fill-7); }
        .fill-8 { fill: var(--fill-8); }
        .fill-9 { fill: var(--fill-9); }
    </style>
    <rect width="600" height="600" fill="transparent"></rect>
    <mask id="mask" mask-type="alpha" maskUnits="userSpaceOnUse">
        <rect transform="translate(0, 0)" width="600" height="600" fill="white"></rect>
    </mask>
    <g name="doubleStripes" mask="url(#mask)" mix-blend-mode="multiply">
        <rect transform="translate(0, 0) rotate(0)" width="60" height="120" fill="none"></rect>
        <path transform="translate(0, 0) rotate(0)" class="fill-7"
            d="M48.0004 120.462H52.0004L52.0004 0.461672L48.0004 0.461672L48.0004 120.462Z"></path>
        <path transform="translate(0, 0) rotate(0)" class="fill-7"
            d="M38.0004 0.461671L38.0004 120.462H42.0004L42.0004 0.461671L38.0004 0.461671Z"></path>
        <path transform="translate(0, 0) rotate(0)" class="fill-7"
            d="M28.0004 0.461671L32.0004 0.461671L32.0004 120.462H28.0004L28.0004 0.461671Z"></path>
        <path transform="translate(0, 0) rotate(0)" class="fill-7"
            d="M18.0004 0.46167L18.0004 120.462H22.0004L22.0004 0.461671L18.0004 0.46167Z"></path>
        <path transform="translate(0, 0) rotate(0)" class="fill-7"
            d="M8.00037 0.46167L8.00037 120.462H12.0004L12.0004 0.46167L8.00037 0.46167Z"></path>
    </g>
    <g name="doubleStripes" mask="url(#mask)" mix-blend-mode="multiply">
        <rect transform="translate(0, 60) rotate(90)" width="60" height="120" fill="none"></rect>
        <path transform="translate(0, 60) rotate(90)" class="fill-8"
            d="M48.0004 120.462H52.0004L52.0004 0.461672L48.0004 0.461672L48.0004 120.462Z"></path>
        <path transform="translate(0, 60) rotate(90)" class="fill-8"
            d="M38.0004 0.461671L38.0004 120.462H42.0004L42.0004 0.461671L38.0004 0.461671Z"></path>
        <path transform="translate(0, 60) rotate(90)" class="fill-8"
            d="M28.0004 0.461671L32.0004 0.461671L32.0004 120.462H28.0004L28.0004 0.461671Z"></path>
        <path transform="translate(0, 60) rotate(90)" class="fill-8"
            d="M18.0004 0.46167L18.0004 120.462H22.0004L22.0004 0.461671L18.0004 0.46167Z"></path>
        <path transform="translate(0, 60) rotate(90)" class="fill-8"
            d="M8.00037 0.46167L8.00037 120.462H12.0004L12.0004 0.46167L8.00037 0.46167Z"></path>
    </g>
    <g name="doubleStripes" mask="url(#mask)" mix-blend-mode="multiply">
        <rect transform="translate(0, 180) rotate(0)" width="60" height="120" fill="none"></rect>
        <path transform="translate(0, 180) rotate(0)" class="fill-8"
            d="M48.0004 120.462H52.0004L52.0004 0.461672L48.0004 0.461672L48.0004 120.462Z"></path>
        <path transform="translate(0, 180) rotate(0)" class="fill-8"
            d="M38.0004 0.461671L38.0004 120.462H42.0004L42.0004 0.461671L38.0004 0.461671Z"></path>
        <path transform="translate(0, 180) rotate(0)" class="fill-8"
            d="M28.0004 0.461671L32.0004 0.461671L32.0004 120.462H28.0004L28.0004 0.461671Z"></path>
        <path transform="translate(0, 180) rotate(0)" class="fill-8"
            d="M18.0004 0.46167L18.0004 120.462H22.0004L22.0004 0.461671L18.0004 0.46167Z"></path>
        <path transform="translate(0, 180) rotate(0)" class="fill-8"
            d="M8.00037 0.46167L8.00037 120.462H12.0004L12.0004 0.46167L8.00037 0.46167Z"></path>
    </g>
    <g name="doubleStripes" mask="url(#mask)" mix-blend-mode="multiply">
        <rect transform="translate(0, 240) rotate(0)" width="60" height="120" fill="none"></rect>
        <path transform="translate(0, 240) rotate(0)" class="fill-3"
            d="M48.0004 120.462H52.0004L52.0004 0.461672L48.0004 0.461672L48.0004 120.462Z"></path>
        <path transform="translate(0, 240) rotate(0)" class="fill-3"
            d="M38.0004 0.461671L38.0004 120.462H42.0004L42.0004 0.461671L38.0004 0.461671Z"></path>
        <path transform="translate(0, 240) rotate(0)" class="fill-3"
            d="M28.0004 0.461671L32.0004 0.461671L32.0004 120.462H28.0004L28.0004 0.461671Z"></path>
        <path transform="translate(0, 240) rotate(0)" class="fill-3"
            d="M18.0004 0.46167L18.0004 120.462H22.0004L22.0004 0.461671L18.0004 0.46167Z"></path>
        <path transform="translate(0, 240) rotate(0)" class="fill-3"
            d="M8.00037 0.46167L8.00037 120.462H12.0004L12.0004 0.46167L8.00037 0.46167Z"></path>
    </g>
    <g name="doubleStripes" mask="url(#mask)" mix-blend-mode="multiply">
        <rect transform="translate(0, 300) rotate(0)" width="60" height="120" fill="none"></rect>
        <path transform="translate(0, 300) rotate(0)" class="fill-3"
            d="M48.0004 120.462H52.0004L52.0004 0.461672L48.0004 0.461672L48.0004 120.462Z"></path>
        <path transform="translate(0, 300) rotate(0)" class="fill-3"
            d="M38.0004 0.461671L38.0004 120.462H42.0004L42.0004 0.461671L38.0004 0.461671Z"></path>
        <path transform="translate(0, 300) rotate(0)" class="fill-3"
            d="M28.0004 0.461671L32.0004 0.461671L32.0004 120.462H28.0004L28.0004 0.461671Z"></path>
        <path transform="translate(0, 300) rotate(0)" class="fill-3"
            d="M18.0004 0.46167L18.0004 120.462H22.0004L22.0004 0.461671L18.0004 0.46167Z"></path>
        <path transform="translate(0, 300) rotate(0)" class="fill-3"
            d="M8.00037 0.46167L8.00037 120.462H12.0004L12.0004 0.46167L8.00037 0.46167Z"></path>
    </g>
    <g name="doubleStripes" mask="url(#mask)" mix-blend-mode="multiply">
        <rect transform="translate(0, 360) rotate(0)" width="60" height="120" fill="none"></rect>
        <path transform="translate(0, 360) rotate(0)" class="fill-2"
            d="M48.0004 120.462H52.0004L52.0004 0.461672L48.0004 0.461672L48.0004 120.462Z"></path>
        <path transform="translate(0, 360) rotate(0)" class="fill-2"
            d="M38.0004 0.461671L38.0004 120.462H42.0004L42.0004 0.461671L38.0004 0.461671Z"></path>
        <path transform="translate(0, 360) rotate(0)" class="fill-2"
            d="M28.0004 0.461671L32.0004 0.461671L32.0004 120.462H28.0004L28.0004 0.461671Z"></path>
        <path transform="translate(0, 360) rotate(0)" class="fill-2"
            d="M18.0004 0.46167L18.0004 120.462H22.0004L22.0004 0.461671L18.0004 0.46167Z"></path>
        <path transform="translate(0, 360) rotate(0)" class="fill-2"
            d="M8.00037 0.46167L8.00037 120.462H12.0004L12.0004 0.46167L8.00037 0.46167Z"></path>
    </g>
    <g name="doubleStripes" mask="url(#mask)" mix-blend-mode="multiply">
        <rect transform="translate(0, 420) rotate(90)" width="60" height="120" fill="none"></rect>
        <path transform="translate(0, 420) rotate(90)" class="fill-2"
            d="M48.0004 120.462H52.0004L52.0004 0.461672L48.0004 0.461672L48.0004 120.462Z"></path>
        <path transform="translate(0, 420) rotate(90)" class="fill-2"
            d="M38.0004 0.461671L38.0004 120.462H42.0004L42.0004 0.461671L38.0004 0.461671Z"></path>
        <path transform="translate(0, 420) rotate(90)" class="fill-2"
            d="M28.0004 0.461671L32.0004 0.461671L32.0004 120.462H28.0004L28.0004 0.461671Z"></path>
        <path transform="translate(0, 420) rotate(90)" class="fill-2"
            d="M18.0004 0.46167L18.0004 120.462H22.0004L22.0004 0.461671L18.0004 0.46167Z"></path>
        <path transform="translate(0, 420) rotate(90)" class="fill-2"
            d="M8.00037 0.46167L8.00037 120.462H12.0004L12.0004 0.46167L8.00037 0.46167Z"></path>
    </g>
    <g name="doubleStripes" mask="url(#mask)" mix-blend-mode="multiply">
        <rect transform="translate(0, 480) rotate(0)" width="60" height="120" fill="none"></rect>
        <path transform="translate(0, 480) rotate(0)" class="fill-7"
            d="M48.0004 120.462H52.0004L52.0004 0.461672L48.0004 0.461672L48.0004 120.462Z"></path>
        <path transform="translate(0, 480) rotate(0)" class="fill-7"
            d="M38.0004 0.461671L38.0004 120.462H42.0004L42.0004 0.461671L38.0004 0.461671Z"></path>
        <path transform="translate(0, 480) rotate(0)" class="fill-7"
            d="M28.0004 0.461671L32.0004 0.461671L32.0004 120.462H28.0004L28.0004 0.461671Z"></path>
        <path transform="translate(0, 480) rotate(0)" class="fill-7"
            d="M18.0004 0.46167L18.0004 120.462H22.0004L22.0004 0.461671L18.0004 0.46167Z"></path>
        <path transform="translate(0, 480) rotate(0)" class="fill-7"
            d="M8.00037 0.46167L8.00037 120.462H12.0004L12.0004 0.46167L8.00037 0.46167Z"></path>
    </g>
    <g name="doubleStripes" mask="url(#mask)" mix-blend-mode="multiply">
        <rect transform="translate(0, 540) rotate(90)" width="60" height="120" fill="none"></rect>
        <path transform="translate(0, 540) rotate(90)" class="fill-7"
            d="M48.0004 120.462H52.0004L52.0004 0.461672L48.0004 0.461672L48.0004 120.462Z"></path>
        <path transform="translate(0, 540) rotate(90)" class="fill-7"
            d="M38.0004 0.461671L38.0004 120.462H42.0004L42.0004 0.461671L38.0004 0.461671Z"></path>
        <path transform="translate(0, 540) rotate(90)" class="fill-7"
            d="M28.0004 0.461671L32.0004 0.461671L32.0004 120.462H28.0004L28.0004 0.461671Z"></path>
        <path transform="translate(0, 540) rotate(90)" class="fill-7"
            d="M18.0004 0.46167L18.0004 120.462H22.0004L22.0004 0.461671L18.0004 0.46167Z"></path>
        <path transform="translate(0, 540) rotate(90)" class="fill-7"
            d="M8.00037 0.46167L8.00037 120.462H12.0004L12.0004 0.46167L8.00037 0.46167Z"></path>
    </g>
    <g name="doubleStripes" mask="url(#mask)" mix-blend-mode="multiply">
        <rect transform="translate(60, 0) rotate(90)" width="60" height="120" fill="none"></rect>
        <path transform="translate(60, 0) rotate(90)" class="fill-1"
            d="M48.0004 120.462H52.0004L52.0004 0.461672L48.0004 0.461672L48.0004 120.462Z"></path>
        <path transform="translate(60, 0) rotate(90)" class="fill-1"
            d="M38.0004 0.461671L38.0004 120.462H42.0004L42.0004 0.461671L38.0004 0.461671Z"></path>
        <path transform="translate(60, 0) rotate(90)" class="fill-1"
            d="M28.0004 0.461671L32.0004 0.461671L32.0004 120.462H28.0004L28.0004 0.461671Z"></path>
        <path transform="translate(60, 0) rotate(90)" class="fill-1"
            d="M18.0004 0.46167L18.0004 120.462H22.0004L22.0004 0.461671L18.0004 0.46167Z"></path>
        <path transform="translate(60, 0) rotate(90)" class="fill-1"
            d="M8.00037 0.46167L8.00037 120.462H12.0004L12.0004 0.46167L8.00037 0.46167Z"></path>
    </g>
    <g name="doubleStripes" mask="url(#mask)" mix-blend-mode="multiply">
        <rect transform="translate(60, 120) rotate(0)" width="60" height="120" fill="none"></rect>
        <path transform="translate(60, 120) rotate(0)" class="fill-1"
            d="M48.0004 120.462H52.0004L52.0004 0.461672L48.0004 0.461672L48.0004 120.462Z"></path>
        <path transform="translate(60, 120) rotate(0)" class="fill-1"
            d="M38.0004 0.461671L38.0004 120.462H42.0004L42.0004 0.461671L38.0004 0.461671Z"></path>
        <path transform="translate(60, 120) rotate(0)" class="fill-1"
            d="M28.0004 0.461671L32.0004 0.461671L32.0004 120.462H28.0004L28.0004 0.461671Z"></path>
        <path transform="translate(60, 120) rotate(0)" class="fill-1"
            d="M18.0004 0.46167L18.0004 120.462H22.0004L22.0004 0.461671L18.0004 0.46167Z"></path>
        <path transform="translate(60, 120) rotate(0)" class="fill-1"
            d="M8.00037 0.46167L8.00037 120.462H12.0004L12.0004 0.46167L8.00037 0.46167Z"></path>
    </g>
    <g name="doubleStripes" mask="url(#mask)" mix-blend-mode="multiply">
        <rect transform="translate(60, 180) rotate(90)" width="60" height="120" fill="none"></rect>
        <path transform="translate(60, 180) rotate(90)" class="fill-1"
            d="M48.0004 120.462H52.0004L52.0004 0.461672L48.0004 0.461672L48.0004 120.462Z"></path>
        <path transform="translate(60, 180) rotate(90)" class="fill-1"
            d="M38.0004 0.461671L38.0004 120.462H42.0004L42.0004 0.461671L38.0004 0.461671Z"></path>
        <path transform="translate(60, 180) rotate(90)" class="fill-1"
            d="M28.0004 0.461671L32.0004 0.461671L32.0004 120.462H28.0004L28.0004 0.461671Z"></path>
        <path transform="translate(60, 180) rotate(90)" class="fill-1"
            d="M18.0004 0.46167L18.0004 120.462H22.0004L22.0004 0.461671L18.0004 0.46167Z"></path>
        <path transform="translate(60, 180) rotate(90)" class="fill-1"
            d="M8.00037 0.46167L8.00037 120.462H12.0004L12.0004 0.46167L8.00037 0.46167Z"></path>
    </g>
    <g name="doubleStripes" mask="url(#mask)" mix-blend-mode="multiply">
        <rect transform="translate(60, 240) rotate(0)" width="60" height="120" fill="none"></rect>
        <path transform="translate(60, 240) rotate(0)" class="fill-8"
            d="M48.0004 120.462H52.0004L52.0004 0.461672L48.0004 0.461672L48.0004 120.462Z"></path>
        <path transform="translate(60, 240) rotate(0)" class="fill-8"
            d="M38.0004 0.461671L38.0004 120.462H42.0004L42.0004 0.461671L38.0004 0.461671Z"></path>
        <path transform="translate(60, 240) rotate(0)" class="fill-8"
            d="M28.0004 0.461671L32.0004 0.461671L32.0004 120.462H28.0004L28.0004 0.461671Z"></path>
        <path transform="translate(60, 240) rotate(0)" class="fill-8"
            d="M18.0004 0.46167L18.0004 120.462H22.0004L22.0004 0.461671L18.0004 0.46167Z"></path>
        <path transform="translate(60, 240) rotate(0)" class="fill-8"
            d="M8.00037 0.46167L8.00037 120.462H12.0004L12.0004 0.46167L8.00037 0.46167Z"></path>
    </g>
    <g name="doubleStripes" mask="url(#mask)" mix-blend-mode="multiply">
        <rect transform="translate(60, 300) rotate(90)" width="60" height="120" fill="none"></rect>
        <path transform="translate(60, 300) rotate(90)" class="fill-9"
            d="M48.0004 120.462H52.0004L52.0004 0.461672L48.0004 0.461672L48.0004 120.462Z"></path>
        <path transform="translate(60, 300) rotate(90)" class="fill-9"
            d="M38.0004 0.461671L38.0004 120.462H42.0004L42.0004 0.461671L38.0004 0.461671Z"></path>
        <path transform="translate(60, 300) rotate(90)" class="fill-9"
            d="M28.0004 0.461671L32.0004 0.461671L32.0004 120.462H28.0004L28.0004 0.461671Z"></path>
        <path transform="translate(60, 300) rotate(90)" class="fill-9"
            d="M18.0004 0.46167L18.0004 120.462H22.0004L22.0004 0.461671L18.0004 0.46167Z"></path>
        <path transform="translate(60, 300) rotate(90)" class="fill-9"
            d="M8.00037 0.46167L8.00037 120.462H12.0004L12.0004 0.46167L8.00037 0.46167Z"></path>
    </g>
    <g name="doubleStripes" mask="url(#mask)" mix-blend-mode="multiply">
        <rect transform="translate(60, 360) rotate(90)" width="60" height="120" fill="none"></rect>
        <path transform="translate(60, 360) rotate(90)" class="fill-2"
            d="M48.0004 120.462H52.0004L52.0004 0.461672L48.0004 0.461672L48.0004 120.462Z"></path>
        <path transform="translate(60, 360) rotate(90)" class="fill-2"
            d="M38.0004 0.461671L38.0004 120.462H42.0004L42.0004 0.461671L38.0004 0.461671Z"></path>
        <path transform="translate(60, 360) rotate(90)" class="fill-2"
            d="M28.0004 0.461671L32.0004 0.461671L32.0004 120.462H28.0004L28.0004 0.461671Z"></path>
        <path transform="translate(60, 360) rotate(90)" class="fill-2"
            d="M18.0004 0.46167L18.0004 120.462H22.0004L22.0004 0.461671L18.0004 0.46167Z"></path>
        <path transform="translate(60, 360) rotate(90)" class="fill-2"
            d="M8.00037 0.46167L8.00037 120.462H12.0004L12.0004 0.46167L8.00037 0.46167Z"></path>
    </g>
    <g name="doubleStripes" mask="url(#mask)" mix-blend-mode="multiply">
        <rect transform="translate(60, 480) rotate(90)" width="60" height="120" fill="none"></rect>
        <path transform="translate(60, 480) rotate(90)" class="fill-3"
            d="M48.0004 120.462H52.0004L52.0004 0.461672L48.0004 0.461672L48.0004 120.462Z"></path>
        <path transform="translate(60, 480) rotate(90)" class="fill-3"
            d="M38.0004 0.461671L38.0004 120.462H42.0004L42.0004 0.461671L38.0004 0.461671Z"></path>
        <path transform="translate(60, 480) rotate(90)" class="fill-3"
            d="M28.0004 0.461671L32.0004 0.461671L32.0004 120.462H28.0004L28.0004 0.461671Z"></path>
        <path transform="translate(60, 480) rotate(90)" class="fill-3"
            d="M18.0004 0.46167L18.0004 120.462H22.0004L22.0004 0.461671L18.0004 0.46167Z"></path>
        <path transform="translate(60, 480) rotate(90)" class="fill-3"
            d="M8.00037 0.46167L8.00037 120.462H12.0004L12.0004 0.46167L8.00037 0.46167Z"></path>
    </g>
    <g name="doubleStripes" mask="url(#mask)" mix-blend-mode="multiply">
        <rect transform="translate(60, 540) rotate(0)" width="60" height="120" fill="none"></rect>
        <path transform="translate(60, 540) rotate(0)" class="fill-7"
            d="M48.0004 120.462H52.0004L52.0004 0.461672L48.0004 0.461672L48.0004 120.462Z"></path>
        <path transform="translate(60, 540) rotate(0)" class="fill-7"
            d="M38.0004 0.461671L38.0004 120.462H42.0004L42.0004 0.461671L38.0004 0.461671Z"></path>
        <path transform="translate(60, 540) rotate(0)" class="fill-7"
            d="M28.0004 0.461671L32.0004 0.461671L32.0004 120.462H28.0004L28.0004 0.461671Z"></path>
        <path transform="translate(60, 540) rotate(0)" class="fill-7"
            d="M18.0004 0.46167L18.0004 120.462H22.0004L22.0004 0.461671L18.0004 0.46167Z"></path>
        <path transform="translate(60, 540) rotate(0)" class="fill-7"
            d="M8.00037 0.46167L8.00037 120.462H12.0004L12.0004 0.46167L8.00037 0.46167Z"></path>
    </g>
    <g name="doubleStripes" mask="url(#mask)" mix-blend-mode="multiply">
        <rect transform="translate(120, 0) rotate(0)" width="60" height="120" fill="none"></rect>
        <path transform="translate(120, 0) rotate(0)" class="fill-8"
            d="M48.0004 120.462H52.0004L52.0004 0.461672L48.0004 0.461672L48.0004 120.462Z"></path>
        <path transform="translate(120, 0) rotate(0)" class="fill-8"
            d="M38.0004 0.461671L38.0004 120.462H42.0004L42.0004 0.461671L38.0004 0.461671Z"></path>
        <path transform="translate(120, 0) rotate(0)" class="fill-8"
            d="M28.0004 0.461671L32.0004 0.461671L32.0004 120.462H28.0004L28.0004 0.461671Z"></path>
        <path transform="translate(120, 0) rotate(0)" class="fill-8"
            d="M18.0004 0.46167L18.0004 120.462H22.0004L22.0004 0.461671L18.0004 0.46167Z"></path>
        <path transform="translate(120, 0) rotate(0)" class="fill-8"
            d="M8.00037 0.46167L8.00037 120.462H12.0004L12.0004 0.46167L8.00037 0.46167Z"></path>
    </g>
    <g name="doubleStripes" mask="url(#mask)" mix-blend-mode="multiply">
        <rect transform="translate(120, 120) rotate(0)" width="60" height="120" fill="none"></rect>
        <path transform="translate(120, 120) rotate(0)" class="fill-8"
            d="M48.0004 120.462H52.0004L52.0004 0.461672L48.0004 0.461672L48.0004 120.462Z"></path>
        <path transform="translate(120, 120) rotate(0)" class="fill-8"
            d="M38.0004 0.461671L38.0004 120.462H42.0004L42.0004 0.461671L38.0004 0.461671Z"></path>
        <path transform="translate(120, 120) rotate(0)" class="fill-8"
            d="M28.0004 0.461671L32.0004 0.461671L32.0004 120.462H28.0004L28.0004 0.461671Z"></path>
        <path transform="translate(120, 120) rotate(0)" class="fill-8"
            d="M18.0004 0.46167L18.0004 120.462H22.0004L22.0004 0.461671L18.0004 0.46167Z"></path>
        <path transform="translate(120, 120) rotate(0)" class="fill-8"
            d="M8.00037 0.46167L8.00037 120.462H12.0004L12.0004 0.46167L8.00037 0.46167Z"></path>
    </g>
    <g name="doubleStripes" mask="url(#mask)" mix-blend-mode="multiply">
        <rect transform="translate(120, 180) rotate(90)" width="60" height="120" fill="none"></rect>
        <path transform="translate(120, 180) rotate(90)" class="fill-9"
            d="M48.0004 120.462H52.0004L52.0004 0.461672L48.0004 0.461672L48.0004 120.462Z"></path>
        <path transform="translate(120, 180) rotate(90)" class="fill-9"
            d="M38.0004 0.461671L38.0004 120.462H42.0004L42.0004 0.461671L38.0004 0.461671Z"></path>
        <path transform="translate(120, 180) rotate(90)" class="fill-9"
            d="M28.0004 0.461671L32.0004 0.461671L32.0004 120.462H28.0004L28.0004 0.461671Z"></path>
        <path transform="translate(120, 180) rotate(90)" class="fill-9"
            d="M18.0004 0.46167L18.0004 120.462H22.0004L22.0004 0.461671L18.0004 0.46167Z"></path>
        <path transform="translate(120, 180) rotate(90)" class="fill-9"
            d="M8.00037 0.46167L8.00037 120.462H12.0004L12.0004 0.46167L8.00037 0.46167Z"></path>
    </g>
    <g name="doubleStripes" mask="url(#mask)" mix-blend-mode="multiply">
        <rect transform="translate(120, 300) rotate(0)" width="60" height="120" fill="none"></rect>
        <path transform="translate(120, 300) rotate(0)" class="fill-6"
            d="M48.0004 120.462H52.0004L52.0004 0.461672L48.0004 0.461672L48.0004 120.462Z"></path>
        <path transform="translate(120, 300) rotate(0)" class="fill-6"
            d="M38.0004 0.461671L38.0004 120.462H42.0004L42.0004 0.461671L38.0004 0.461671Z"></path>
        <path transform="translate(120, 300) rotate(0)" class="fill-6"
            d="M28.0004 0.461671L32.0004 0.461671L32.0004 120.462H28.0004L28.0004 0.461671Z"></path>
        <path transform="translate(120, 300) rotate(0)" class="fill-6"
            d="M18.0004 0.46167L18.0004 120.462H22.0004L22.0004 0.461671L18.0004 0.46167Z"></path>
        <path transform="translate(120, 300) rotate(0)" class="fill-6"
            d="M8.00037 0.46167L8.00037 120.462H12.0004L12.0004 0.46167L8.00037 0.46167Z"></path>
    </g>
    <g name="doubleStripes" mask="url(#mask)" mix-blend-mode="multiply">
        <rect transform="translate(120, 420) rotate(90)" width="60" height="120" fill="none"></rect>
        <path transform="translate(120, 420) rotate(90)" class="fill-8"
            d="M48.0004 120.462H52.0004L52.0004 0.461672L48.0004 0.461672L48.0004 120.462Z"></path>
        <path transform="translate(120, 420) rotate(90)" class="fill-8"
            d="M38.0004 0.461671L38.0004 120.462H42.0004L42.0004 0.461671L38.0004 0.461671Z"></path>
        <path transform="translate(120, 420) rotate(90)" class="fill-8"
            d="M28.0004 0.461671L32.0004 0.461671L32.0004 120.462H28.0004L28.0004 0.461671Z"></path>
        <path transform="translate(120, 420) rotate(90)" class="fill-8"
            d="M18.0004 0.46167L18.0004 120.462H22.0004L22.0004 0.461671L18.0004 0.46167Z"></path>
        <path transform="translate(120, 420) rotate(90)" class="fill-8"
            d="M8.00037 0.46167L8.00037 120.462H12.0004L12.0004 0.46167L8.00037 0.46167Z"></path>
    </g>
    <g name="doubleStripes" mask="url(#mask)" mix-blend-mode="multiply">
        <rect transform="translate(120, 480) rotate(0)" width="60" height="120" fill="none"></rect>
        <path transform="translate(120, 480) rotate(0)" class="fill-8"
            d="M48.0004 120.462H52.0004L52.0004 0.461672L48.0004 0.461672L48.0004 120.462Z"></path>
        <path transform="translate(120, 480) rotate(0)" class="fill-8"
            d="M38.0004 0.461671L38.0004 120.462H42.0004L42.0004 0.461671L38.0004 0.461671Z"></path>
        <path transform="translate(120, 480) rotate(0)" class="fill-8"
            d="M28.0004 0.461671L32.0004 0.461671L32.0004 120.462H28.0004L28.0004 0.461671Z"></path>
        <path transform="translate(120, 480) rotate(0)" class="fill-8"
            d="M18.0004 0.46167L18.0004 120.462H22.0004L22.0004 0.461671L18.0004 0.46167Z"></path>
        <path transform="translate(120, 480) rotate(0)" class="fill-8"
            d="M8.00037 0.46167L8.00037 120.462H12.0004L12.0004 0.46167L8.00037 0.46167Z"></path>
    </g>
    <g name="doubleStripes" mask="url(#mask)" mix-blend-mode="multiply">
        <rect transform="translate(120, 540) rotate(90)" width="60" height="120" fill="none"></rect>
        <path transform="translate(120, 540) rotate(90)" class="fill-8"
            d="M48.0004 120.462H52.0004L52.0004 0.461672L48.0004 0.461672L48.0004 120.462Z"></path>
        <path transform="translate(120, 540) rotate(90)" class="fill-8"
            d="M38.0004 0.461671L38.0004 120.462H42.0004L42.0004 0.461671L38.0004 0.461671Z"></path>
        <path transform="translate(120, 540) rotate(90)" class="fill-8"
            d="M28.0004 0.461671L32.0004 0.461671L32.0004 120.462H28.0004L28.0004 0.461671Z"></path>
        <path transform="translate(120, 540) rotate(90)" class="fill-8"
            d="M18.0004 0.46167L18.0004 120.462H22.0004L22.0004 0.461671L18.0004 0.46167Z"></path>
        <path transform="translate(120, 540) rotate(90)" class="fill-8"
            d="M8.00037 0.46167L8.00037 120.462H12.0004L12.0004 0.46167L8.00037 0.46167Z"></path>
    </g>
    <g name="doubleStripes" mask="url(#mask)" mix-blend-mode="multiply">
        <rect transform="translate(180, 0) rotate(90)" width="60" height="120" fill="none"></rect>
        <path transform="translate(180, 0) rotate(90)" class="fill-6"
            d="M48.0004 120.462H52.0004L52.0004 0.461672L48.0004 0.461672L48.0004 120.462Z"></path>
        <path transform="translate(180, 0) rotate(90)" class="fill-6"
            d="M38.0004 0.461671L38.0004 120.462H42.0004L42.0004 0.461671L38.0004 0.461671Z"></path>
        <path transform="translate(180, 0) rotate(90)" class="fill-6"
            d="M28.0004 0.461671L32.0004 0.461671L32.0004 120.462H28.0004L28.0004 0.461671Z"></path>
        <path transform="translate(180, 0) rotate(90)" class="fill-6"
            d="M18.0004 0.46167L18.0004 120.462H22.0004L22.0004 0.461671L18.0004 0.46167Z"></path>
        <path transform="translate(180, 0) rotate(90)" class="fill-6"
            d="M8.00037 0.46167L8.00037 120.462H12.0004L12.0004 0.46167L8.00037 0.46167Z"></path>
    </g>
    <g name="doubleStripes" mask="url(#mask)" mix-blend-mode="multiply">
        <rect transform="translate(180, 60) rotate(0)" width="60" height="120" fill="none"></rect>
        <path transform="translate(180, 60) rotate(0)" class="fill-3"
            d="M48.0004 120.462H52.0004L52.0004 0.461672L48.0004 0.461672L48.0004 120.462Z"></path>
        <path transform="translate(180, 60) rotate(0)" class="fill-3"
            d="M38.0004 0.461671L38.0004 120.462H42.0004L42.0004 0.461671L38.0004 0.461671Z"></path>
        <path transform="translate(180, 60) rotate(0)" class="fill-3"
            d="M28.0004 0.461671L32.0004 0.461671L32.0004 120.462H28.0004L28.0004 0.461671Z"></path>
        <path transform="translate(180, 60) rotate(0)" class="fill-3"
            d="M18.0004 0.46167L18.0004 120.462H22.0004L22.0004 0.461671L18.0004 0.46167Z"></path>
        <path transform="translate(180, 60) rotate(0)" class="fill-3"
            d="M8.00037 0.46167L8.00037 120.462H12.0004L12.0004 0.46167L8.00037 0.46167Z"></path>
    </g>
    <g name="doubleStripes" mask="url(#mask)" mix-blend-mode="multiply">
        <rect transform="translate(180, 120) rotate(0)" width="60" height="120" fill="none"></rect>
        <path transform="translate(180, 120) rotate(0)" class="fill-2"
            d="M48.0004 120.462H52.0004L52.0004 0.461672L48.0004 0.461672L48.0004 120.462Z"></path>
        <path transform="translate(180, 120) rotate(0)" class="fill-2"
            d="M38.0004 0.461671L38.0004 120.462H42.0004L42.0004 0.461671L38.0004 0.461671Z"></path>
        <path transform="translate(180, 120) rotate(0)" class="fill-2"
            d="M28.0004 0.461671L32.0004 0.461671L32.0004 120.462H28.0004L28.0004 0.461671Z"></path>
        <path transform="translate(180, 120) rotate(0)" class="fill-2"
            d="M18.0004 0.46167L18.0004 120.462H22.0004L22.0004 0.461671L18.0004 0.46167Z"></path>
        <path transform="translate(180, 120) rotate(0)" class="fill-2"
            d="M8.00037 0.46167L8.00037 120.462H12.0004L12.0004 0.46167L8.00037 0.46167Z"></path>
    </g>
    <g name="doubleStripes" mask="url(#mask)" mix-blend-mode="multiply">
        <rect transform="translate(180, 180) rotate(0)" width="60" height="120" fill="none"></rect>
        <path transform="translate(180, 180) rotate(0)" class="fill-5"
            d="M48.0004 120.462H52.0004L52.0004 0.461672L48.0004 0.461672L48.0004 120.462Z"></path>
        <path transform="translate(180, 180) rotate(0)" class="fill-5"
            d="M38.0004 0.461671L38.0004 120.462H42.0004L42.0004 0.461671L38.0004 0.461671Z"></path>
        <path transform="translate(180, 180) rotate(0)" class="fill-5"
            d="M28.0004 0.461671L32.0004 0.461671L32.0004 120.462H28.0004L28.0004 0.461671Z"></path>
        <path transform="translate(180, 180) rotate(0)" class="fill-5"
            d="M18.0004 0.46167L18.0004 120.462H22.0004L22.0004 0.461671L18.0004 0.46167Z"></path>
        <path transform="translate(180, 180) rotate(0)" class="fill-5"
            d="M8.00037 0.46167L8.00037 120.462H12.0004L12.0004 0.46167L8.00037 0.46167Z"></path>
    </g>
    <g name="doubleStripes" mask="url(#mask)" mix-blend-mode="multiply">
        <rect transform="translate(180, 240) rotate(0)" width="60" height="120" fill="none"></rect>
        <path transform="translate(180, 240) rotate(0)" class="fill-3"
            d="M48.0004 120.462H52.0004L52.0004 0.461672L48.0004 0.461672L48.0004 120.462Z"></path>
        <path transform="translate(180, 240) rotate(0)" class="fill-3"
            d="M38.0004 0.461671L38.0004 120.462H42.0004L42.0004 0.461671L38.0004 0.461671Z"></path>
        <path transform="translate(180, 240) rotate(0)" class="fill-3"
            d="M28.0004 0.461671L32.0004 0.461671L32.0004 120.462H28.0004L28.0004 0.461671Z"></path>
        <path transform="translate(180, 240) rotate(0)" class="fill-3"
            d="M18.0004 0.46167L18.0004 120.462H22.0004L22.0004 0.461671L18.0004 0.46167Z"></path>
        <path transform="translate(180, 240) rotate(0)" class="fill-3"
            d="M8.00037 0.46167L8.00037 120.462H12.0004L12.0004 0.46167L8.00037 0.46167Z"></path>
    </g>
    <g name="doubleStripes" mask="url(#mask)" mix-blend-mode="multiply">
        <rect transform="translate(180, 300) rotate(0)" width="60" height="120" fill="none"></rect>
        <path transform="translate(180, 300) rotate(0)" class="fill-3"
            d="M48.0004 120.462H52.0004L52.0004 0.461672L48.0004 0.461672L48.0004 120.462Z"></path>
        <path transform="translate(180, 300) rotate(0)" class="fill-3"
            d="M38.0004 0.461671L38.0004 120.462H42.0004L42.0004 0.461671L38.0004 0.461671Z"></path>
        <path transform="translate(180, 300) rotate(0)" class="fill-3"
            d="M28.0004 0.461671L32.0004 0.461671L32.0004 120.462H28.0004L28.0004 0.461671Z"></path>
        <path transform="translate(180, 300) rotate(0)" class="fill-3"
            d="M18.0004 0.46167L18.0004 120.462H22.0004L22.0004 0.461671L18.0004 0.46167Z"></path>
        <path transform="translate(180, 300) rotate(0)" class="fill-3"
            d="M8.00037 0.46167L8.00037 120.462H12.0004L12.0004 0.46167L8.00037 0.46167Z"></path>
    </g>
    <g name="doubleStripes" mask="url(#mask)" mix-blend-mode="multiply">
        <rect transform="translate(180, 360) rotate(0)" width="60" height="120" fill="none"></rect>
        <path transform="translate(180, 360) rotate(0)" class="fill-2"
            d="M48.0004 120.462H52.0004L52.0004 0.461672L48.0004 0.461672L48.0004 120.462Z"></path>
        <path transform="translate(180, 360) rotate(0)" class="fill-2"
            d="M38.0004 0.461671L38.0004 120.462H42.0004L42.0004 0.461671L38.0004 0.461671Z"></path>
        <path transform="translate(180, 360) rotate(0)" class="fill-2"
            d="M28.0004 0.461671L32.0004 0.461671L32.0004 120.462H28.0004L28.0004 0.461671Z"></path>
        <path transform="translate(180, 360) rotate(0)" class="fill-2"
            d="M18.0004 0.46167L18.0004 120.462H22.0004L22.0004 0.461671L18.0004 0.46167Z"></path>
        <path transform="translate(180, 360) rotate(0)" class="fill-2"
            d="M8.00037 0.46167L8.00037 120.462H12.0004L12.0004 0.46167L8.00037 0.46167Z"></path>
    </g>
    <g name="doubleStripes" mask="url(#mask)" mix-blend-mode="multiply">
        <rect transform="translate(180, 420) rotate(90)" width="60" height="120" fill="none"></rect>
        <path transform="translate(180, 420) rotate(90)" class="fill-3"
            d="M48.0004 120.462H52.0004L52.0004 0.461672L48.0004 0.461672L48.0004 120.462Z"></path>
        <path transform="translate(180, 420) rotate(90)" class="fill-3"
            d="M38.0004 0.461671L38.0004 120.462H42.0004L42.0004 0.461671L38.0004 0.461671Z"></path>
        <path transform="translate(180, 420) rotate(90)" class="fill-3"
            d="M28.0004 0.461671L32.0004 0.461671L32.0004 120.462H28.0004L28.0004 0.461671Z"></path>
        <path transform="translate(180, 420) rotate(90)" class="fill-3"
            d="M18.0004 0.46167L18.0004 120.462H22.0004L22.0004 0.461671L18.0004 0.46167Z"></path>
        <path transform="translate(180, 420) rotate(90)" class="fill-3"
            d="M8.00037 0.46167L8.00037 120.462H12.0004L12.0004 0.46167L8.00037 0.46167Z"></path>
    </g>
    <g name="doubleStripes" mask="url(#mask)" mix-blend-mode="multiply">
        <rect transform="translate(180, 480) rotate(90)" width="60" height="120" fill="none"></rect>
        <path transform="translate(180, 480) rotate(90)" class="fill-4"
            d="M48.0004 120.462H52.0004L52.0004 0.461672L48.0004 0.461672L48.0004 120.462Z"></path>
        <path transform="translate(180, 480) rotate(90)" class="fill-4"
            d="M38.0004 0.461671L38.0004 120.462H42.0004L42.0004 0.461671L38.0004 0.461671Z"></path>
        <path transform="translate(180, 480) rotate(90)" class="fill-4"
            d="M28.0004 0.461671L32.0004 0.461671L32.0004 120.462H28.0004L28.0004 0.461671Z"></path>
        <path transform="translate(180, 480) rotate(90)" class="fill-4"
            d="M18.0004 0.46167L18.0004 120.462H22.0004L22.0004 0.461671L18.0004 0.46167Z"></path>
        <path transform="translate(180, 480) rotate(90)" class="fill-4"
            d="M8.00037 0.46167L8.00037 120.462H12.0004L12.0004 0.46167L8.00037 0.46167Z"></path>
    </g>
    <g name="doubleStripes" mask="url(#mask)" mix-blend-mode="multiply">
        <rect transform="translate(180, 540) rotate(90)" width="60" height="120" fill="none"></rect>
        <path transform="translate(180, 540) rotate(90)" class="fill-8"
            d="M48.0004 120.462H52.0004L52.0004 0.461672L48.0004 0.461672L48.0004 120.462Z"></path>
        <path transform="translate(180, 540) rotate(90)" class="fill-8"
            d="M38.0004 0.461671L38.0004 120.462H42.0004L42.0004 0.461671L38.0004 0.461671Z"></path>
        <path transform="translate(180, 540) rotate(90)" class="fill-8"
            d="M28.0004 0.461671L32.0004 0.461671L32.0004 120.462H28.0004L28.0004 0.461671Z"></path>
        <path transform="translate(180, 540) rotate(90)" class="fill-8"
            d="M18.0004 0.46167L18.0004 120.462H22.0004L22.0004 0.461671L18.0004 0.46167Z"></path>
        <path transform="translate(180, 540) rotate(90)" class="fill-8"
            d="M8.00037 0.46167L8.00037 120.462H12.0004L12.0004 0.46167L8.00037 0.46167Z"></path>
    </g>
    <g name="doubleStripes" mask="url(#mask)" mix-blend-mode="multiply">
        <rect transform="translate(240, 60) rotate(90)" width="60" height="120" fill="none"></rect>
        <path transform="translate(240, 60) rotate(90)" class="fill-7"
            d="M48.0004 120.462H52.0004L52.0004 0.461672L48.0004 0.461672L48.0004 120.462Z"></path>
        <path transform="translate(240, 60) rotate(90)" class="fill-7"
            d="M38.0004 0.461671L38.0004 120.462H42.0004L42.0004 0.461671L38.0004 0.461671Z"></path>
        <path transform="translate(240, 60) rotate(90)" class="fill-7"
            d="M28.0004 0.461671L32.0004 0.461671L32.0004 120.462H28.0004L28.0004 0.461671Z"></path>
        <path transform="translate(240, 60) rotate(90)" class="fill-7"
            d="M18.0004 0.46167L18.0004 120.462H22.0004L22.0004 0.461671L18.0004 0.46167Z"></path>
        <path transform="translate(240, 60) rotate(90)" class="fill-7"
            d="M8.00037 0.46167L8.00037 120.462H12.0004L12.0004 0.46167L8.00037 0.46167Z"></path>
    </g>
    <g name="doubleStripes" mask="url(#mask)" mix-blend-mode="multiply">
        <rect transform="translate(240, 120) rotate(90)" width="60" height="120" fill="none"></rect>
        <path transform="translate(240, 120) rotate(90)" class="fill-7"
            d="M48.0004 120.462H52.0004L52.0004 0.461672L48.0004 0.461672L48.0004 120.462Z"></path>
        <path transform="translate(240, 120) rotate(90)" class="fill-7"
            d="M38.0004 0.461671L38.0004 120.462H42.0004L42.0004 0.461671L38.0004 0.461671Z"></path>
        <path transform="translate(240, 120) rotate(90)" class="fill-7"
            d="M28.0004 0.461671L32.0004 0.461671L32.0004 120.462H28.0004L28.0004 0.461671Z"></path>
        <path transform="translate(240, 120) rotate(90)" class="fill-7"
            d="M18.0004 0.46167L18.0004 120.462H22.0004L22.0004 0.461671L18.0004 0.46167Z"></path>
        <path transform="translate(240, 120) rotate(90)" class="fill-7"
            d="M8.00037 0.46167L8.00037 120.462H12.0004L12.0004 0.46167L8.00037 0.46167Z"></path>
    </g>
    <g name="doubleStripes" mask="url(#mask)" mix-blend-mode="multiply">
        <rect transform="translate(240, 240) rotate(90)" width="60" height="120" fill="none"></rect>
        <path transform="translate(240, 240) rotate(90)" class="fill-3"
            d="M48.0004 120.462H52.0004L52.0004 0.461672L48.0004 0.461672L48.0004 120.462Z"></path>
        <path transform="translate(240, 240) rotate(90)" class="fill-3"
            d="M38.0004 0.461671L38.0004 120.462H42.0004L42.0004 0.461671L38.0004 0.461671Z"></path>
        <path transform="translate(240, 240) rotate(90)" class="fill-3"
            d="M28.0004 0.461671L32.0004 0.461671L32.0004 120.462H28.0004L28.0004 0.461671Z"></path>
        <path transform="translate(240, 240) rotate(90)" class="fill-3"
            d="M18.0004 0.46167L18.0004 120.462H22.0004L22.0004 0.461671L18.0004 0.46167Z"></path>
        <path transform="translate(240, 240) rotate(90)" class="fill-3"
            d="M8.00037 0.46167L8.00037 120.462H12.0004L12.0004 0.46167L8.00037 0.46167Z"></path>
    </g>
    <g name="doubleStripes" mask="url(#mask)" mix-blend-mode="multiply">
        <rect transform="translate(240, 300) rotate(0)" width="60" height="120" fill="none"></rect>
        <path transform="translate(240, 300) rotate(0)" class="fill-9"
            d="M48.0004 120.462H52.0004L52.0004 0.461672L48.0004 0.461672L48.0004 120.462Z"></path>
        <path transform="translate(240, 300) rotate(0)" class="fill-9"
            d="M38.0004 0.461671L38.0004 120.462H42.0004L42.0004 0.461671L38.0004 0.461671Z"></path>
        <path transform="translate(240, 300) rotate(0)" class="fill-9"
            d="M28.0004 0.461671L32.0004 0.461671L32.0004 120.462H28.0004L28.0004 0.461671Z"></path>
        <path transform="translate(240, 300) rotate(0)" class="fill-9"
            d="M18.0004 0.46167L18.0004 120.462H22.0004L22.0004 0.461671L18.0004 0.46167Z"></path>
        <path transform="translate(240, 300) rotate(0)" class="fill-9"
            d="M8.00037 0.46167L8.00037 120.462H12.0004L12.0004 0.46167L8.00037 0.46167Z"></path>
    </g>
    <g name="doubleStripes" mask="url(#mask)" mix-blend-mode="multiply">
        <rect transform="translate(240, 360) rotate(0)" width="60" height="120" fill="none"></rect>
        <path transform="translate(240, 360) rotate(0)" class="fill-9"
            d="M48.0004 120.462H52.0004L52.0004 0.461672L48.0004 0.461672L48.0004 120.462Z"></path>
        <path transform="translate(240, 360) rotate(0)" class="fill-9"
            d="M38.0004 0.461671L38.0004 120.462H42.0004L42.0004 0.461671L38.0004 0.461671Z"></path>
        <path transform="translate(240, 360) rotate(0)" class="fill-9"
            d="M28.0004 0.461671L32.0004 0.461671L32.0004 120.462H28.0004L28.0004 0.461671Z"></path>
        <path transform="translate(240, 360) rotate(0)" class="fill-9"
            d="M18.0004 0.46167L18.0004 120.462H22.0004L22.0004 0.461671L18.0004 0.46167Z"></path>
        <path transform="translate(240, 360) rotate(0)" class="fill-9"
            d="M8.00037 0.46167L8.00037 120.462H12.0004L12.0004 0.46167L8.00037 0.46167Z"></path>
    </g>
    <g name="doubleStripes" mask="url(#mask)" mix-blend-mode="multiply">
        <rect transform="translate(240, 480) rotate(0)" width="60" height="120" fill="none"></rect>
        <path transform="translate(240, 480) rotate(0)" class="fill-2"
            d="M48.0004 120.462H52.0004L52.0004 0.461672L48.0004 0.461672L48.0004 120.462Z"></path>
        <path transform="translate(240, 480) rotate(0)" class="fill-2"
            d="M38.0004 0.461671L38.0004 120.462H42.0004L42.0004 0.461671L38.0004 0.461671Z"></path>
        <path transform="translate(240, 480) rotate(0)" class="fill-2"
            d="M28.0004 0.461671L32.0004 0.461671L32.0004 120.462H28.0004L28.0004 0.461671Z"></path>
        <path transform="translate(240, 480) rotate(0)" class="fill-2"
            d="M18.0004 0.46167L18.0004 120.462H22.0004L22.0004 0.461671L18.0004 0.46167Z"></path>
        <path transform="translate(240, 480) rotate(0)" class="fill-2"
            d="M8.00037 0.46167L8.00037 120.462H12.0004L12.0004 0.46167L8.00037 0.46167Z"></path>
    </g>
    <g name="doubleStripes" mask="url(#mask)" mix-blend-mode="multiply">
        <rect transform="translate(240, 540) rotate(0)" width="60" height="120" fill="none"></rect>
        <path transform="translate(240, 540) rotate(0)" class="fill-7"
            d="M48.0004 120.462H52.0004L52.0004 0.461672L48.0004 0.461672L48.0004 120.462Z"></path>
        <path transform="translate(240, 540) rotate(0)" class="fill-7"
            d="M38.0004 0.461671L38.0004 120.462H42.0004L42.0004 0.461671L38.0004 0.461671Z"></path>
        <path transform="translate(240, 540) rotate(0)" class="fill-7"
            d="M28.0004 0.461671L32.0004 0.461671L32.0004 120.462H28.0004L28.0004 0.461671Z"></path>
        <path transform="translate(240, 540) rotate(0)" class="fill-7"
            d="M18.0004 0.46167L18.0004 120.462H22.0004L22.0004 0.461671L18.0004 0.46167Z"></path>
        <path transform="translate(240, 540) rotate(0)" class="fill-7"
            d="M8.00037 0.46167L8.00037 120.462H12.0004L12.0004 0.46167L8.00037 0.46167Z"></path>
    </g>
    <g name="doubleStripes" mask="url(#mask)" mix-blend-mode="multiply">
        <rect transform="translate(300, 0) rotate(90)" width="60" height="120" fill="none"></rect>
        <path transform="translate(300, 0) rotate(90)" class="fill-6"
            d="M48.0004 120.462H52.0004L52.0004 0.461672L48.0004 0.461672L48.0004 120.462Z"></path>
        <path transform="translate(300, 0) rotate(90)" class="fill-6"
            d="M38.0004 0.461671L38.0004 120.462H42.0004L42.0004 0.461671L38.0004 0.461671Z"></path>
        <path transform="translate(300, 0) rotate(90)" class="fill-6"
            d="M28.0004 0.461671L32.0004 0.461671L32.0004 120.462H28.0004L28.0004 0.461671Z"></path>
        <path transform="translate(300, 0) rotate(90)" class="fill-6"
            d="M18.0004 0.46167L18.0004 120.462H22.0004L22.0004 0.461671L18.0004 0.46167Z"></path>
        <path transform="translate(300, 0) rotate(90)" class="fill-6"
            d="M8.00037 0.46167L8.00037 120.462H12.0004L12.0004 0.46167L8.00037 0.46167Z"></path>
    </g>
    <g name="doubleStripes" mask="url(#mask)" mix-blend-mode="multiply">
        <rect transform="translate(300, 60) rotate(90)" width="60" height="120" fill="none"></rect>
        <path transform="translate(300, 60) rotate(90)" class="fill-2"
            d="M48.0004 120.462H52.0004L52.0004 0.461672L48.0004 0.461672L48.0004 120.462Z"></path>
        <path transform="translate(300, 60) rotate(90)" class="fill-2"
            d="M38.0004 0.461671L38.0004 120.462H42.0004L42.0004 0.461671L38.0004 0.461671Z"></path>
        <path transform="translate(300, 60) rotate(90)" class="fill-2"
            d="M28.0004 0.461671L32.0004 0.461671L32.0004 120.462H28.0004L28.0004 0.461671Z"></path>
        <path transform="translate(300, 60) rotate(90)" class="fill-2"
            d="M18.0004 0.46167L18.0004 120.462H22.0004L22.0004 0.461671L18.0004 0.46167Z"></path>
        <path transform="translate(300, 60) rotate(90)" class="fill-2"
            d="M8.00037 0.46167L8.00037 120.462H12.0004L12.0004 0.46167L8.00037 0.46167Z"></path>
    </g>
    <g name="doubleStripes" mask="url(#mask)" mix-blend-mode="multiply">
        <rect transform="translate(300, 120) rotate(0)" width="60" height="120" fill="none"></rect>
        <path transform="translate(300, 120) rotate(0)" class="fill-2"
            d="M48.0004 120.462H52.0004L52.0004 0.461672L48.0004 0.461672L48.0004 120.462Z"></path>
        <path transform="translate(300, 120) rotate(0)" class="fill-2"
            d="M38.0004 0.461671L38.0004 120.462H42.0004L42.0004 0.461671L38.0004 0.461671Z"></path>
        <path transform="translate(300, 120) rotate(0)" class="fill-2"
            d="M28.0004 0.461671L32.0004 0.461671L32.0004 120.462H28.0004L28.0004 0.461671Z"></path>
        <path transform="translate(300, 120) rotate(0)" class="fill-2"
            d="M18.0004 0.46167L18.0004 120.462H22.0004L22.0004 0.461671L18.0004 0.46167Z"></path>
        <path transform="translate(300, 120) rotate(0)" class="fill-2"
            d="M8.00037 0.46167L8.00037 120.462H12.0004L12.0004 0.46167L8.00037 0.46167Z"></path>
    </g>
    <g name="doubleStripes" mask="url(#mask)" mix-blend-mode="multiply">
        <rect transform="translate(300, 180) rotate(0)" width="60" height="120" fill="none"></rect>
        <path transform="translate(300, 180) rotate(0)" class="fill-7"
            d="M48.0004 120.462H52.0004L52.0004 0.461672L48.0004 0.461672L48.0004 120.462Z"></path>
        <path transform="translate(300, 180) rotate(0)" class="fill-7"
            d="M38.0004 0.461671L38.0004 120.462H42.0004L42.0004 0.461671L38.0004 0.461671Z"></path>
        <path transform="translate(300, 180) rotate(0)" class="fill-7"
            d="M28.0004 0.461671L32.0004 0.461671L32.0004 120.462H28.0004L28.0004 0.461671Z"></path>
        <path transform="translate(300, 180) rotate(0)" class="fill-7"
            d="M18.0004 0.46167L18.0004 120.462H22.0004L22.0004 0.461671L18.0004 0.46167Z"></path>
        <path transform="translate(300, 180) rotate(0)" class="fill-7"
            d="M8.00037 0.46167L8.00037 120.462H12.0004L12.0004 0.46167L8.00037 0.46167Z"></path>
    </g>
    <g name="doubleStripes" mask="url(#mask)" mix-blend-mode="multiply">
        <rect transform="translate(300, 240) rotate(90)" width="60" height="120" fill="none"></rect>
        <path transform="translate(300, 240) rotate(90)" class="fill-6"
            d="M48.0004 120.462H52.0004L52.0004 0.461672L48.0004 0.461672L48.0004 120.462Z"></path>
        <path transform="translate(300, 240) rotate(90)" class="fill-6"
            d="M38.0004 0.461671L38.0004 120.462H42.0004L42.0004 0.461671L38.0004 0.461671Z"></path>
        <path transform="translate(300, 240) rotate(90)" class="fill-6"
            d="M28.0004 0.461671L32.0004 0.461671L32.0004 120.462H28.0004L28.0004 0.461671Z"></path>
        <path transform="translate(300, 240) rotate(90)" class="fill-6"
            d="M18.0004 0.46167L18.0004 120.462H22.0004L22.0004 0.461671L18.0004 0.46167Z"></path>
        <path transform="translate(300, 240) rotate(90)" class="fill-6"
            d="M8.00037 0.46167L8.00037 120.462H12.0004L12.0004 0.46167L8.00037 0.46167Z"></path>
    </g>
    <g name="doubleStripes" mask="url(#mask)" mix-blend-mode="multiply">
        <rect transform="translate(300, 300) rotate(90)" width="60" height="120" fill="none"></rect>
        <path transform="translate(300, 300) rotate(90)" class="fill-7"
            d="M48.0004 120.462H52.0004L52.0004 0.461672L48.0004 0.461672L48.0004 120.462Z"></path>
        <path transform="translate(300, 300) rotate(90)" class="fill-7"
            d="M38.0004 0.461671L38.0004 120.462H42.0004L42.0004 0.461671L38.0004 0.461671Z"></path>
        <path transform="translate(300, 300) rotate(90)" class="fill-7"
            d="M28.0004 0.461671L32.0004 0.461671L32.0004 120.462H28.0004L28.0004 0.461671Z"></path>
        <path transform="translate(300, 300) rotate(90)" class="fill-7"
            d="M18.0004 0.46167L18.0004 120.462H22.0004L22.0004 0.461671L18.0004 0.46167Z"></path>
        <path transform="translate(300, 300) rotate(90)" class="fill-7"
            d="M8.00037 0.46167L8.00037 120.462H12.0004L12.0004 0.46167L8.00037 0.46167Z"></path>
    </g>
    <g name="doubleStripes" mask="url(#mask)" mix-blend-mode="multiply">
        <rect transform="translate(300, 360) rotate(0)" width="60" height="120" fill="none"></rect>
        <path transform="translate(300, 360) rotate(0)" class="fill-7"
            d="M48.0004 120.462H52.0004L52.0004 0.461672L48.0004 0.461672L48.0004 120.462Z"></path>
        <path transform="translate(300, 360) rotate(0)" class="fill-7"
            d="M38.0004 0.461671L38.0004 120.462H42.0004L42.0004 0.461671L38.0004 0.461671Z"></path>
        <path transform="translate(300, 360) rotate(0)" class="fill-7"
            d="M28.0004 0.461671L32.0004 0.461671L32.0004 120.462H28.0004L28.0004 0.461671Z"></path>
        <path transform="translate(300, 360) rotate(0)" class="fill-7"
            d="M18.0004 0.46167L18.0004 120.462H22.0004L22.0004 0.461671L18.0004 0.46167Z"></path>
        <path transform="translate(300, 360) rotate(0)" class="fill-7"
            d="M8.00037 0.46167L8.00037 120.462H12.0004L12.0004 0.46167L8.00037 0.46167Z"></path>
    </g>
    <g name="doubleStripes" mask="url(#mask)" mix-blend-mode="multiply">
        <rect transform="translate(300, 420) rotate(90)" width="60" height="120" fill="none"></rect>
        <path transform="translate(300, 420) rotate(90)" class="fill-6"
            d="M48.0004 120.462H52.0004L52.0004 0.461672L48.0004 0.461672L48.0004 120.462Z"></path>
        <path transform="translate(300, 420) rotate(90)" class="fill-6"
            d="M38.0004 0.461671L38.0004 120.462H42.0004L42.0004 0.461671L38.0004 0.461671Z"></path>
        <path transform="translate(300, 420) rotate(90)" class="fill-6"
            d="M28.0004 0.461671L32.0004 0.461671L32.0004 120.462H28.0004L28.0004 0.461671Z"></path>
        <path transform="translate(300, 420) rotate(90)" class="fill-6"
            d="M18.0004 0.46167L18.0004 120.462H22.0004L22.0004 0.461671L18.0004 0.46167Z"></path>
        <path transform="translate(300, 420) rotate(90)" class="fill-6"
            d="M8.00037 0.46167L8.00037 120.462H12.0004L12.0004 0.46167L8.00037 0.46167Z"></path>
    </g>
    <g name="doubleStripes" mask="url(#mask)" mix-blend-mode="multiply">
        <rect transform="translate(300, 480) rotate(90)" width="60" height="120" fill="none"></rect>
        <path transform="translate(300, 480) rotate(90)" class="fill-4"
            d="M48.0004 120.462H52.0004L52.0004 0.461672L48.0004 0.461672L48.0004 120.462Z"></path>
        <path transform="translate(300, 480) rotate(90)" class="fill-4"
            d="M38.0004 0.461671L38.0004 120.462H42.0004L42.0004 0.461671L38.0004 0.461671Z"></path>
        <path transform="translate(300, 480) rotate(90)" class="fill-4"
            d="M28.0004 0.461671L32.0004 0.461671L32.0004 120.462H28.0004L28.0004 0.461671Z"></path>
        <path transform="translate(300, 480) rotate(90)" class="fill-4"
            d="M18.0004 0.46167L18.0004 120.462H22.0004L22.0004 0.461671L18.0004 0.46167Z"></path>
        <path transform="translate(300, 480) rotate(90)" class="fill-4"
            d="M8.00037 0.46167L8.00037 120.462H12.0004L12.0004 0.46167L8.00037 0.46167Z"></path>
    </g>
    <g name="doubleStripes" mask="url(#mask)" mix-blend-mode="multiply">
        <rect transform="translate(300, 540) rotate(90)" width="60" height="120" fill="none"></rect>
        <path transform="translate(300, 540) rotate(90)" class="fill-4"
            d="M48.0004 120.462H52.0004L52.0004 0.461672L48.0004 0.461672L48.0004 120.462Z"></path>
        <path transform="translate(300, 540) rotate(90)" class="fill-4"
            d="M38.0004 0.461671L38.0004 120.462H42.0004L42.0004 0.461671L38.0004 0.461671Z"></path>
        <path transform="translate(300, 540) rotate(90)" class="fill-4"
            d="M28.0004 0.461671L32.0004 0.461671L32.0004 120.462H28.0004L28.0004 0.461671Z"></path>
        <path transform="translate(300, 540) rotate(90)" class="fill-4"
            d="M18.0004 0.46167L18.0004 120.462H22.0004L22.0004 0.461671L18.0004 0.46167Z"></path>
        <path transform="translate(300, 540) rotate(90)" class="fill-4"
            d="M8.00037 0.46167L8.00037 120.462H12.0004L12.0004 0.46167L8.00037 0.46167Z"></path>
    </g>
    <g name="doubleStripes" mask="url(#mask)" mix-blend-mode="multiply">
        <rect transform="translate(360, 0) rotate(0)" width="60" height="120" fill="none"></rect>
        <path transform="translate(360, 0) rotate(0)" class="fill-6"
            d="M48.0004 120.462H52.0004L52.0004 0.461672L48.0004 0.461672L48.0004 120.462Z"></path>
        <path transform="translate(360, 0) rotate(0)" class="fill-6"
            d="M38.0004 0.461671L38.0004 120.462H42.0004L42.0004 0.461671L38.0004 0.461671Z"></path>
        <path transform="translate(360, 0) rotate(0)" class="fill-6"
            d="M28.0004 0.461671L32.0004 0.461671L32.0004 120.462H28.0004L28.0004 0.461671Z"></path>
        <path transform="translate(360, 0) rotate(0)" class="fill-6"
            d="M18.0004 0.46167L18.0004 120.462H22.0004L22.0004 0.461671L18.0004 0.46167Z"></path>
        <path transform="translate(360, 0) rotate(0)" class="fill-6"
            d="M8.00037 0.46167L8.00037 120.462H12.0004L12.0004 0.46167L8.00037 0.46167Z"></path>
    </g>
    <g name="doubleStripes" mask="url(#mask)" mix-blend-mode="multiply">
        <rect transform="translate(360, 60) rotate(90)" width="60" height="120" fill="none"></rect>
        <path transform="translate(360, 60) rotate(90)" class="fill-2"
            d="M48.0004 120.462H52.0004L52.0004 0.461672L48.0004 0.461672L48.0004 120.462Z"></path>
        <path transform="translate(360, 60) rotate(90)" class="fill-2"
            d="M38.0004 0.461671L38.0004 120.462H42.0004L42.0004 0.461671L38.0004 0.461671Z"></path>
        <path transform="translate(360, 60) rotate(90)" class="fill-2"
            d="M28.0004 0.461671L32.0004 0.461671L32.0004 120.462H28.0004L28.0004 0.461671Z"></path>
        <path transform="translate(360, 60) rotate(90)" class="fill-2"
            d="M18.0004 0.46167L18.0004 120.462H22.0004L22.0004 0.461671L18.0004 0.46167Z"></path>
        <path transform="translate(360, 60) rotate(90)" class="fill-2"
            d="M8.00037 0.46167L8.00037 120.462H12.0004L12.0004 0.46167L8.00037 0.46167Z"></path>
    </g>
    <g name="doubleStripes" mask="url(#mask)" mix-blend-mode="multiply">
        <rect transform="translate(360, 180) rotate(90)" width="60" height="120" fill="none"></rect>
        <path transform="translate(360, 180) rotate(90)" class="fill-4"
            d="M48.0004 120.462H52.0004L52.0004 0.461672L48.0004 0.461672L48.0004 120.462Z"></path>
        <path transform="translate(360, 180) rotate(90)" class="fill-4"
            d="M38.0004 0.461671L38.0004 120.462H42.0004L42.0004 0.461671L38.0004 0.461671Z"></path>
        <path transform="translate(360, 180) rotate(90)" class="fill-4"
            d="M28.0004 0.461671L32.0004 0.461671L32.0004 120.462H28.0004L28.0004 0.461671Z"></path>
        <path transform="translate(360, 180) rotate(90)" class="fill-4"
            d="M18.0004 0.46167L18.0004 120.462H22.0004L22.0004 0.461671L18.0004 0.46167Z"></path>
        <path transform="translate(360, 180) rotate(90)" class="fill-4"
            d="M8.00037 0.46167L8.00037 120.462H12.0004L12.0004 0.46167L8.00037 0.46167Z"></path>
    </g>
    <g name="doubleStripes" mask="url(#mask)" mix-blend-mode="multiply">
        <rect transform="translate(360, 240) rotate(0)" width="60" height="120" fill="none"></rect>
        <path transform="translate(360, 240) rotate(0)" class="fill-1"
            d="M48.0004 120.462H52.0004L52.0004 0.461672L48.0004 0.461672L48.0004 120.462Z"></path>
        <path transform="translate(360, 240) rotate(0)" class="fill-1"
            d="M38.0004 0.461671L38.0004 120.462H42.0004L42.0004 0.461671L38.0004 0.461671Z"></path>
        <path transform="translate(360, 240) rotate(0)" class="fill-1"
            d="M28.0004 0.461671L32.0004 0.461671L32.0004 120.462H28.0004L28.0004 0.461671Z"></path>
        <path transform="translate(360, 240) rotate(0)" class="fill-1"
            d="M18.0004 0.46167L18.0004 120.462H22.0004L22.0004 0.461671L18.0004 0.46167Z"></path>
        <path transform="translate(360, 240) rotate(0)" class="fill-1"
            d="M8.00037 0.46167L8.00037 120.462H12.0004L12.0004 0.46167L8.00037 0.46167Z"></path>
    </g>
    <g name="doubleStripes" mask="url(#mask)" mix-blend-mode="multiply">
        <rect transform="translate(360, 300) rotate(90)" width="60" height="120" fill="none"></rect>
        <path transform="translate(360, 300) rotate(90)" class="fill-7"
            d="M48.0004 120.462H52.0004L52.0004 0.461672L48.0004 0.461672L48.0004 120.462Z"></path>
        <path transform="translate(360, 300) rotate(90)" class="fill-7"
            d="M38.0004 0.461671L38.0004 120.462H42.0004L42.0004 0.461671L38.0004 0.461671Z"></path>
        <path transform="translate(360, 300) rotate(90)" class="fill-7"
            d="M28.0004 0.461671L32.0004 0.461671L32.0004 120.462H28.0004L28.0004 0.461671Z"></path>
        <path transform="translate(360, 300) rotate(90)" class="fill-7"
            d="M18.0004 0.46167L18.0004 120.462H22.0004L22.0004 0.461671L18.0004 0.46167Z"></path>
        <path transform="translate(360, 300) rotate(90)" class="fill-7"
            d="M8.00037 0.46167L8.00037 120.462H12.0004L12.0004 0.46167L8.00037 0.46167Z"></path>
    </g>
    <g name="doubleStripes" mask="url(#mask)" mix-blend-mode="multiply">
        <rect transform="translate(360, 360) rotate(0)" width="60" height="120" fill="none"></rect>
        <path transform="translate(360, 360) rotate(0)" class="fill-6"
            d="M48.0004 120.462H52.0004L52.0004 0.461672L48.0004 0.461672L48.0004 120.462Z"></path>
        <path transform="translate(360, 360) rotate(0)" class="fill-6"
            d="M38.0004 0.461671L38.0004 120.462H42.0004L42.0004 0.461671L38.0004 0.461671Z"></path>
        <path transform="translate(360, 360) rotate(0)" class="fill-6"
            d="M28.0004 0.461671L32.0004 0.461671L32.0004 120.462H28.0004L28.0004 0.461671Z"></path>
        <path transform="translate(360, 360) rotate(0)" class="fill-6"
            d="M18.0004 0.46167L18.0004 120.462H22.0004L22.0004 0.461671L18.0004 0.46167Z"></path>
        <path transform="translate(360, 360) rotate(0)" class="fill-6"
            d="M8.00037 0.46167L8.00037 120.462H12.0004L12.0004 0.46167L8.00037 0.46167Z"></path>
    </g>
    <g name="doubleStripes" mask="url(#mask)" mix-blend-mode="multiply">
        <rect transform="translate(360, 420) rotate(90)" width="60" height="120" fill="none"></rect>
        <path transform="translate(360, 420) rotate(90)" class="fill-7"
            d="M48.0004 120.462H52.0004L52.0004 0.461672L48.0004 0.461672L48.0004 120.462Z"></path>
        <path transform="translate(360, 420) rotate(90)" class="fill-7"
            d="M38.0004 0.461671L38.0004 120.462H42.0004L42.0004 0.461671L38.0004 0.461671Z"></path>
        <path transform="translate(360, 420) rotate(90)" class="fill-7"
            d="M28.0004 0.461671L32.0004 0.461671L32.0004 120.462H28.0004L28.0004 0.461671Z"></path>
        <path transform="translate(360, 420) rotate(90)" class="fill-7"
            d="M18.0004 0.46167L18.0004 120.462H22.0004L22.0004 0.461671L18.0004 0.46167Z"></path>
        <path transform="translate(360, 420) rotate(90)" class="fill-7"
            d="M8.00037 0.46167L8.00037 120.462H12.0004L12.0004 0.46167L8.00037 0.46167Z"></path>
    </g>
    <g name="doubleStripes" mask="url(#mask)" mix-blend-mode="multiply">
        <rect transform="translate(420, 0) rotate(0)" width="60" height="120" fill="none"></rect>
        <path transform="translate(420, 0) rotate(0)" class="fill-4"
            d="M48.0004 120.462H52.0004L52.0004 0.461672L48.0004 0.461672L48.0004 120.462Z"></path>
        <path transform="translate(420, 0) rotate(0)" class="fill-4"
            d="M38.0004 0.461671L38.0004 120.462H42.0004L42.0004 0.461671L38.0004 0.461671Z"></path>
        <path transform="translate(420, 0) rotate(0)" class="fill-4"
            d="M28.0004 0.461671L32.0004 0.461671L32.0004 120.462H28.0004L28.0004 0.461671Z"></path>
        <path transform="translate(420, 0) rotate(0)" class="fill-4"
            d="M18.0004 0.46167L18.0004 120.462H22.0004L22.0004 0.461671L18.0004 0.46167Z"></path>
        <path transform="translate(420, 0) rotate(0)" class="fill-4"
            d="M8.00037 0.46167L8.00037 120.462H12.0004L12.0004 0.46167L8.00037 0.46167Z"></path>
    </g>
    <g name="doubleStripes" mask="url(#mask)" mix-blend-mode="multiply">
        <rect transform="translate(420, 60) rotate(90)" width="60" height="120" fill="none"></rect>
        <path transform="translate(420, 60) rotate(90)" class="fill-7"
            d="M48.0004 120.462H52.0004L52.0004 0.461672L48.0004 0.461672L48.0004 120.462Z"></path>
        <path transform="translate(420, 60) rotate(90)" class="fill-7"
            d="M38.0004 0.461671L38.0004 120.462H42.0004L42.0004 0.461671L38.0004 0.461671Z"></path>
        <path transform="translate(420, 60) rotate(90)" class="fill-7"
            d="M28.0004 0.461671L32.0004 0.461671L32.0004 120.462H28.0004L28.0004 0.461671Z"></path>
        <path transform="translate(420, 60) rotate(90)" class="fill-7"
            d="M18.0004 0.46167L18.0004 120.462H22.0004L22.0004 0.461671L18.0004 0.46167Z"></path>
        <path transform="translate(420, 60) rotate(90)" class="fill-7"
            d="M8.00037 0.46167L8.00037 120.462H12.0004L12.0004 0.46167L8.00037 0.46167Z"></path>
    </g>
    <g name="doubleStripes" mask="url(#mask)" mix-blend-mode="multiply">
        <rect transform="translate(420, 120) rotate(90)" width="60" height="120" fill="none"></rect>
        <path transform="translate(420, 120) rotate(90)" class="fill-5"
            d="M48.0004 120.462H52.0004L52.0004 0.461672L48.0004 0.461672L48.0004 120.462Z"></path>
        <path transform="translate(420, 120) rotate(90)" class="fill-5"
            d="M38.0004 0.461671L38.0004 120.462H42.0004L42.0004 0.461671L38.0004 0.461671Z"></path>
        <path transform="translate(420, 120) rotate(90)" class="fill-5"
            d="M28.0004 0.461671L32.0004 0.461671L32.0004 120.462H28.0004L28.0004 0.461671Z"></path>
        <path transform="translate(420, 120) rotate(90)" class="fill-5"
            d="M18.0004 0.46167L18.0004 120.462H22.0004L22.0004 0.461671L18.0004 0.46167Z"></path>
        <path transform="translate(420, 120) rotate(90)" class="fill-5"
            d="M8.00037 0.46167L8.00037 120.462H12.0004L12.0004 0.46167L8.00037 0.46167Z"></path>
    </g>
    <g name="doubleStripes" mask="url(#mask)" mix-blend-mode="multiply">
        <rect transform="translate(420, 240) rotate(0)" width="60" height="120" fill="none"></rect>
        <path transform="translate(420, 240) rotate(0)" class="fill-7"
            d="M48.0004 120.462H52.0004L52.0004 0.461672L48.0004 0.461672L48.0004 120.462Z"></path>
        <path transform="translate(420, 240) rotate(0)" class="fill-7"
            d="M38.0004 0.461671L38.0004 120.462H42.0004L42.0004 0.461671L38.0004 0.461671Z"></path>
        <path transform="translate(420, 240) rotate(0)" class="fill-7"
            d="M28.0004 0.461671L32.0004 0.461671L32.0004 120.462H28.0004L28.0004 0.461671Z"></path>
        <path transform="translate(420, 240) rotate(0)" class="fill-7"
            d="M18.0004 0.46167L18.0004 120.462H22.0004L22.0004 0.461671L18.0004 0.46167Z"></path>
        <path transform="translate(420, 240) rotate(0)" class="fill-7"
            d="M8.00037 0.46167L8.00037 120.462H12.0004L12.0004 0.46167L8.00037 0.46167Z"></path>
    </g>
    <g name="doubleStripes" mask="url(#mask)" mix-blend-mode="multiply">
        <rect transform="translate(420, 300) rotate(90)" width="60" height="120" fill="none"></rect>
        <path transform="translate(420, 300) rotate(90)" class="fill-4"
            d="M48.0004 120.462H52.0004L52.0004 0.461672L48.0004 0.461672L48.0004 120.462Z"></path>
        <path transform="translate(420, 300) rotate(90)" class="fill-4"
            d="M38.0004 0.461671L38.0004 120.462H42.0004L42.0004 0.461671L38.0004 0.461671Z"></path>
        <path transform="translate(420, 300) rotate(90)" class="fill-4"
            d="M28.0004 0.461671L32.0004 0.461671L32.0004 120.462H28.0004L28.0004 0.461671Z"></path>
        <path transform="translate(420, 300) rotate(90)" class="fill-4"
            d="M18.0004 0.46167L18.0004 120.462H22.0004L22.0004 0.461671L18.0004 0.46167Z"></path>
        <path transform="translate(420, 300) rotate(90)" class="fill-4"
            d="M8.00037 0.46167L8.00037 120.462H12.0004L12.0004 0.46167L8.00037 0.46167Z"></path>
    </g>
    <g name="doubleStripes" mask="url(#mask)" mix-blend-mode="multiply">
        <rect transform="translate(420, 420) rotate(90)" width="60" height="120" fill="none"></rect>
        <path transform="translate(420, 420) rotate(90)" class="fill-6"
            d="M48.0004 120.462H52.0004L52.0004 0.461672L48.0004 0.461672L48.0004 120.462Z"></path>
        <path transform="translate(420, 420) rotate(90)" class="fill-6"
            d="M38.0004 0.461671L38.0004 120.462H42.0004L42.0004 0.461671L38.0004 0.461671Z"></path>
        <path transform="translate(420, 420) rotate(90)" class="fill-6"
            d="M28.0004 0.461671L32.0004 0.461671L32.0004 120.462H28.0004L28.0004 0.461671Z"></path>
        <path transform="translate(420, 420) rotate(90)" class="fill-6"
            d="M18.0004 0.46167L18.0004 120.462H22.0004L22.0004 0.461671L18.0004 0.46167Z"></path>
        <path transform="translate(420, 420) rotate(90)" class="fill-6"
            d="M8.00037 0.46167L8.00037 120.462H12.0004L12.0004 0.46167L8.00037 0.46167Z"></path>
    </g>
    <g name="doubleStripes" mask="url(#mask)" mix-blend-mode="multiply">
        <rect transform="translate(420, 480) rotate(90)" width="60" height="120" fill="none"></rect>
        <path transform="translate(420, 480) rotate(90)" class="fill-1"
            d="M48.0004 120.462H52.0004L52.0004 0.461672L48.0004 0.461672L48.0004 120.462Z"></path>
        <path transform="translate(420, 480) rotate(90)" class="fill-1"
            d="M38.0004 0.461671L38.0004 120.462H42.0004L42.0004 0.461671L38.0004 0.461671Z"></path>
        <path transform="translate(420, 480) rotate(90)" class="fill-1"
            d="M28.0004 0.461671L32.0004 0.461671L32.0004 120.462H28.0004L28.0004 0.461671Z"></path>
        <path transform="translate(420, 480) rotate(90)" class="fill-1"
            d="M18.0004 0.46167L18.0004 120.462H22.0004L22.0004 0.461671L18.0004 0.46167Z"></path>
        <path transform="translate(420, 480) rotate(90)" class="fill-1"
            d="M8.00037 0.46167L8.00037 120.462H12.0004L12.0004 0.46167L8.00037 0.46167Z"></path>
    </g>
    <g name="doubleStripes" mask="url(#mask)" mix-blend-mode="multiply">
        <rect transform="translate(420, 540) rotate(90)" width="60" height="120" fill="none"></rect>
        <path transform="translate(420, 540) rotate(90)" class="fill-6"
            d="M48.0004 120.462H52.0004L52.0004 0.461672L48.0004 0.461672L48.0004 120.462Z"></path>
        <path transform="translate(420, 540) rotate(90)" class="fill-6"
            d="M38.0004 0.461671L38.0004 120.462H42.0004L42.0004 0.461671L38.0004 0.461671Z"></path>
        <path transform="translate(420, 540) rotate(90)" class="fill-6"
            d="M28.0004 0.461671L32.0004 0.461671L32.0004 120.462H28.0004L28.0004 0.461671Z"></path>
        <path transform="translate(420, 540) rotate(90)" class="fill-6"
            d="M18.0004 0.46167L18.0004 120.462H22.0004L22.0004 0.461671L18.0004 0.46167Z"></path>
        <path transform="translate(420, 540) rotate(90)" class="fill-6"
            d="M8.00037 0.46167L8.00037 120.462H12.0004L12.0004 0.46167L8.00037 0.46167Z"></path>
    </g>
    <g name="doubleStripes" mask="url(#mask)" mix-blend-mode="multiply">
        <rect transform="translate(480, 0) rotate(90)" width="60" height="120" fill="none"></rect>
        <path transform="translate(480, 0) rotate(90)" class="fill-2"
            d="M48.0004 120.462H52.0004L52.0004 0.461672L48.0004 0.461672L48.0004 120.462Z"></path>
        <path transform="translate(480, 0) rotate(90)" class="fill-2"
            d="M38.0004 0.461671L38.0004 120.462H42.0004L42.0004 0.461671L38.0004 0.461671Z"></path>
        <path transform="translate(480, 0) rotate(90)" class="fill-2"
            d="M28.0004 0.461671L32.0004 0.461671L32.0004 120.462H28.0004L28.0004 0.461671Z"></path>
        <path transform="translate(480, 0) rotate(90)" class="fill-2"
            d="M18.0004 0.46167L18.0004 120.462H22.0004L22.0004 0.461671L18.0004 0.46167Z"></path>
        <path transform="translate(480, 0) rotate(90)" class="fill-2"
            d="M8.00037 0.46167L8.00037 120.462H12.0004L12.0004 0.46167L8.00037 0.46167Z"></path>
    </g>
    <g name="doubleStripes" mask="url(#mask)" mix-blend-mode="multiply">
        <rect transform="translate(480, 60) rotate(90)" width="60" height="120" fill="none"></rect>
        <path transform="translate(480, 60) rotate(90)" class="fill-3"
            d="M48.0004 120.462H52.0004L52.0004 0.461672L48.0004 0.461672L48.0004 120.462Z"></path>
        <path transform="translate(480, 60) rotate(90)" class="fill-3"
            d="M38.0004 0.461671L38.0004 120.462H42.0004L42.0004 0.461671L38.0004 0.461671Z"></path>
        <path transform="translate(480, 60) rotate(90)" class="fill-3"
            d="M28.0004 0.461671L32.0004 0.461671L32.0004 120.462H28.0004L28.0004 0.461671Z"></path>
        <path transform="translate(480, 60) rotate(90)" class="fill-3"
            d="M18.0004 0.46167L18.0004 120.462H22.0004L22.0004 0.461671L18.0004 0.46167Z"></path>
        <path transform="translate(480, 60) rotate(90)" class="fill-3"
            d="M8.00037 0.46167L8.00037 120.462H12.0004L12.0004 0.46167L8.00037 0.46167Z"></path>
    </g>
    <g name="doubleStripes" mask="url(#mask)" mix-blend-mode="multiply">
        <rect transform="translate(480, 120) rotate(0)" width="60" height="120" fill="none"></rect>
        <path transform="translate(480, 120) rotate(0)" class="fill-7"
            d="M48.0004 120.462H52.0004L52.0004 0.461672L48.0004 0.461672L48.0004 120.462Z"></path>
        <path transform="translate(480, 120) rotate(0)" class="fill-7"
            d="M38.0004 0.461671L38.0004 120.462H42.0004L42.0004 0.461671L38.0004 0.461671Z"></path>
        <path transform="translate(480, 120) rotate(0)" class="fill-7"
            d="M28.0004 0.461671L32.0004 0.461671L32.0004 120.462H28.0004L28.0004 0.461671Z"></path>
        <path transform="translate(480, 120) rotate(0)" class="fill-7"
            d="M18.0004 0.46167L18.0004 120.462H22.0004L22.0004 0.461671L18.0004 0.46167Z"></path>
        <path transform="translate(480, 120) rotate(0)" class="fill-7"
            d="M8.00037 0.46167L8.00037 120.462H12.0004L12.0004 0.46167L8.00037 0.46167Z"></path>
    </g>
    <g name="doubleStripes" mask="url(#mask)" mix-blend-mode="multiply">
        <rect transform="translate(480, 180) rotate(0)" width="60" height="120" fill="none"></rect>
        <path transform="translate(480, 180) rotate(0)" class="fill-7"
            d="M48.0004 120.462H52.0004L52.0004 0.461672L48.0004 0.461672L48.0004 120.462Z"></path>
        <path transform="translate(480, 180) rotate(0)" class="fill-7"
            d="M38.0004 0.461671L38.0004 120.462H42.0004L42.0004 0.461671L38.0004 0.461671Z"></path>
        <path transform="translate(480, 180) rotate(0)" class="fill-7"
            d="M28.0004 0.461671L32.0004 0.461671L32.0004 120.462H28.0004L28.0004 0.461671Z"></path>
        <path transform="translate(480, 180) rotate(0)" class="fill-7"
            d="M18.0004 0.46167L18.0004 120.462H22.0004L22.0004 0.461671L18.0004 0.46167Z"></path>
        <path transform="translate(480, 180) rotate(0)" class="fill-7"
            d="M8.00037 0.46167L8.00037 120.462H12.0004L12.0004 0.46167L8.00037 0.46167Z"></path>
    </g>
    <g name="doubleStripes" mask="url(#mask)" mix-blend-mode="multiply">
        <rect transform="translate(480, 300) rotate(0)" width="60" height="120" fill="none"></rect>
        <path transform="translate(480, 300) rotate(0)" class="fill-3"
            d="M48.0004 120.462H52.0004L52.0004 0.461672L48.0004 0.461672L48.0004 120.462Z"></path>
        <path transform="translate(480, 300) rotate(0)" class="fill-3"
            d="M38.0004 0.461671L38.0004 120.462H42.0004L42.0004 0.461671L38.0004 0.461671Z"></path>
        <path transform="translate(480, 300) rotate(0)" class="fill-3"
            d="M28.0004 0.461671L32.0004 0.461671L32.0004 120.462H28.0004L28.0004 0.461671Z"></path>
        <path transform="translate(480, 300) rotate(0)" class="fill-3"
            d="M18.0004 0.46167L18.0004 120.462H22.0004L22.0004 0.461671L18.0004 0.46167Z"></path>
        <path transform="translate(480, 300) rotate(0)" class="fill-3"
            d="M8.00037 0.46167L8.00037 120.462H12.0004L12.0004 0.46167L8.00037 0.46167Z"></path>
    </g>
    <g name="doubleStripes" mask="url(#mask)" mix-blend-mode="multiply">
        <rect transform="translate(480, 360) rotate(90)" width="60" height="120" fill="none"></rect>
        <path transform="translate(480, 360) rotate(90)" class="fill-8"
            d="M48.0004 120.462H52.0004L52.0004 0.461672L48.0004 0.461672L48.0004 120.462Z"></path>
        <path transform="translate(480, 360) rotate(90)" class="fill-8"
            d="M38.0004 0.461671L38.0004 120.462H42.0004L42.0004 0.461671L38.0004 0.461671Z"></path>
        <path transform="translate(480, 360) rotate(90)" class="fill-8"
            d="M28.0004 0.461671L32.0004 0.461671L32.0004 120.462H28.0004L28.0004 0.461671Z"></path>
        <path transform="translate(480, 360) rotate(90)" class="fill-8"
            d="M18.0004 0.46167L18.0004 120.462H22.0004L22.0004 0.461671L18.0004 0.46167Z"></path>
        <path transform="translate(480, 360) rotate(90)" class="fill-8"
            d="M8.00037 0.46167L8.00037 120.462H12.0004L12.0004 0.46167L8.00037 0.46167Z"></path>
    </g>
    <g name="doubleStripes" mask="url(#mask)" mix-blend-mode="multiply">
        <rect transform="translate(480, 420) rotate(0)" width="60" height="120" fill="none"></rect>
        <path transform="translate(480, 420) rotate(0)" class="fill-7"
            d="M48.0004 120.462H52.0004L52.0004 0.461672L48.0004 0.461672L48.0004 120.462Z"></path>
        <path transform="translate(480, 420) rotate(0)" class="fill-7"
            d="M38.0004 0.461671L38.0004 120.462H42.0004L42.0004 0.461671L38.0004 0.461671Z"></path>
        <path transform="translate(480, 420) rotate(0)" class="fill-7"
            d="M28.0004 0.461671L32.0004 0.461671L32.0004 120.462H28.0004L28.0004 0.461671Z"></path>
        <path transform="translate(480, 420) rotate(0)" class="fill-7"
            d="M18.0004 0.46167L18.0004 120.462H22.0004L22.0004 0.461671L18.0004 0.46167Z"></path>
        <path transform="translate(480, 420) rotate(0)" class="fill-7"
            d="M8.00037 0.46167L8.00037 120.462H12.0004L12.0004 0.46167L8.00037 0.46167Z"></path>
    </g>
    <g name="doubleStripes" mask="url(#mask)" mix-blend-mode="multiply">
        <rect transform="translate(480, 480) rotate(90)" width="60" height="120" fill="none"></rect>
        <path transform="translate(480, 480) rotate(90)" class="fill-6"
            d="M48.0004 120.462H52.0004L52.0004 0.461672L48.0004 0.461672L48.0004 120.462Z"></path>
        <path transform="translate(480, 480) rotate(90)" class="fill-6"
            d="M38.0004 0.461671L38.0004 120.462H42.0004L42.0004 0.461671L38.0004 0.461671Z"></path>
        <path transform="translate(480, 480) rotate(90)" class="fill-6"
            d="M28.0004 0.461671L32.0004 0.461671L32.0004 120.462H28.0004L28.0004 0.461671Z"></path>
        <path transform="translate(480, 480) rotate(90)" class="fill-6"
            d="M18.0004 0.46167L18.0004 120.462H22.0004L22.0004 0.461671L18.0004 0.46167Z"></path>
        <path transform="translate(480, 480) rotate(90)" class="fill-6"
            d="M8.00037 0.46167L8.00037 120.462H12.0004L12.0004 0.46167L8.00037 0.46167Z"></path>
    </g>
    <g name="doubleStripes" mask="url(#mask)" mix-blend-mode="multiply">
        <rect transform="translate(480, 540) rotate(90)" width="60" height="120" fill="none"></rect>
        <path transform="translate(480, 540) rotate(90)" class="fill-6"
            d="M48.0004 120.462H52.0004L52.0004 0.461672L48.0004 0.461672L48.0004 120.462Z"></path>
        <path transform="translate(480, 540) rotate(90)" class="fill-6"
            d="M38.0004 0.461671L38.0004 120.462H42.0004L42.0004 0.461671L38.0004 0.461671Z"></path>
        <path transform="translate(480, 540) rotate(90)" class="fill-6"
            d="M28.0004 0.461671L32.0004 0.461671L32.0004 120.462H28.0004L28.0004 0.461671Z"></path>
        <path transform="translate(480, 540) rotate(90)" class="fill-6"
            d="M18.0004 0.46167L18.0004 120.462H22.0004L22.0004 0.461671L18.0004 0.46167Z"></path>
        <path transform="translate(480, 540) rotate(90)" class="fill-6"
            d="M8.00037 0.46167L8.00037 120.462H12.0004L12.0004 0.46167L8.00037 0.46167Z"></path>
    </g>
    <g name="doubleStripes" mask="url(#mask)" mix-blend-mode="multiply">
        <rect transform="translate(540, 0) rotate(90)" width="60" height="120" fill="none"></rect>
        <path transform="translate(540, 0) rotate(90)" class="fill-6"
            d="M48.0004 120.462H52.0004L52.0004 0.461672L48.0004 0.461672L48.0004 120.462Z"></path>
        <path transform="translate(540, 0) rotate(90)" class="fill-6"
            d="M38.0004 0.461671L38.0004 120.462H42.0004L42.0004 0.461671L38.0004 0.461671Z"></path>
        <path transform="translate(540, 0) rotate(90)" class="fill-6"
            d="M28.0004 0.461671L32.0004 0.461671L32.0004 120.462H28.0004L28.0004 0.461671Z"></path>
        <path transform="translate(540, 0) rotate(90)" class="fill-6"
            d="M18.0004 0.46167L18.0004 120.462H22.0004L22.0004 0.461671L18.0004 0.46167Z"></path>
        <path transform="translate(540, 0) rotate(90)" class="fill-6"
            d="M8.00037 0.46167L8.00037 120.462H12.0004L12.0004 0.46167L8.00037 0.46167Z"></path>
    </g>
    <g name="doubleStripes" mask="url(#mask)" mix-blend-mode="multiply">
        <rect transform="translate(540, 60) rotate(90)" width="60" height="120" fill="none"></rect>
        <path transform="translate(540, 60) rotate(90)" class="fill-2"
            d="M48.0004 120.462H52.0004L52.0004 0.461672L48.0004 0.461672L48.0004 120.462Z"></path>
        <path transform="translate(540, 60) rotate(90)" class="fill-2"
            d="M38.0004 0.461671L38.0004 120.462H42.0004L42.0004 0.461671L38.0004 0.461671Z"></path>
        <path transform="translate(540, 60) rotate(90)" class="fill-2"
            d="M28.0004 0.461671L32.0004 0.461671L32.0004 120.462H28.0004L28.0004 0.461671Z"></path>
        <path transform="translate(540, 60) rotate(90)" class="fill-2"
            d="M18.0004 0.46167L18.0004 120.462H22.0004L22.0004 0.461671L18.0004 0.46167Z"></path>
        <path transform="translate(540, 60) rotate(90)" class="fill-2"
            d="M8.00037 0.46167L8.00037 120.462H12.0004L12.0004 0.46167L8.00037 0.46167Z"></path>
    </g>
    <g name="doubleStripes" mask="url(#mask)" mix-blend-mode="multiply">
        <rect transform="translate(540, 120) rotate(90)" width="60" height="120" fill="none"></rect>
        <path transform="translate(540, 120) rotate(90)" class="fill-3"
            d="M48.0004 120.462H52.0004L52.0004 0.461672L48.0004 0.461672L48.0004 120.462Z"></path>
        <path transform="translate(540, 120) rotate(90)" class="fill-3"
            d="M38.0004 0.461671L38.0004 120.462H42.0004L42.0004 0.461671L38.0004 0.461671Z"></path>
        <path transform="translate(540, 120) rotate(90)" class="fill-3"
            d="M28.0004 0.461671L32.0004 0.461671L32.0004 120.462H28.0004L28.0004 0.461671Z"></path>
        <path transform="translate(540, 120) rotate(90)" class="fill-3"
            d="M18.0004 0.46167L18.0004 120.462H22.0004L22.0004 0.461671L18.0004 0.46167Z"></path>
        <path transform="translate(540, 120) rotate(90)" class="fill-3"
            d="M8.00037 0.46167L8.00037 120.462H12.0004L12.0004 0.46167L8.00037 0.46167Z"></path>
    </g>
    <g name="doubleStripes" mask="url(#mask)" mix-blend-mode="multiply">
        <rect transform="translate(540, 180) rotate(90)" width="60" height="120" fill="none"></rect>
        <path transform="translate(540, 180) rotate(90)" class="fill-6"
            d="M48.0004 120.462H52.0004L52.0004 0.461672L48.0004 0.461672L48.0004 120.462Z"></path>
        <path transform="translate(540, 180) rotate(90)" class="fill-6"
            d="M38.0004 0.461671L38.0004 120.462H42.0004L42.0004 0.461671L38.0004 0.461671Z"></path>
        <path transform="translate(540, 180) rotate(90)" class="fill-6"
            d="M28.0004 0.461671L32.0004 0.461671L32.0004 120.462H28.0004L28.0004 0.461671Z"></path>
        <path transform="translate(540, 180) rotate(90)" class="fill-6"
            d="M18.0004 0.46167L18.0004 120.462H22.0004L22.0004 0.461671L18.0004 0.46167Z"></path>
        <path transform="translate(540, 180) rotate(90)" class="fill-6"
            d="M8.00037 0.46167L8.00037 120.462H12.0004L12.0004 0.46167L8.00037 0.46167Z"></path>
    </g>
    <g name="doubleStripes" mask="url(#mask)" mix-blend-mode="multiply">
        <rect transform="translate(540, 300) rotate(0)" width="60" height="120" fill="none"></rect>
        <path transform="translate(540, 300) rotate(0)" class="fill-8"
            d="M48.0004 120.462H52.0004L52.0004 0.461672L48.0004 0.461672L48.0004 120.462Z"></path>
        <path transform="translate(540, 300) rotate(0)" class="fill-8"
            d="M38.0004 0.461671L38.0004 120.462H42.0004L42.0004 0.461671L38.0004 0.461671Z"></path>
        <path transform="translate(540, 300) rotate(0)" class="fill-8"
            d="M28.0004 0.461671L32.0004 0.461671L32.0004 120.462H28.0004L28.0004 0.461671Z"></path>
        <path transform="translate(540, 300) rotate(0)" class="fill-8"
            d="M18.0004 0.46167L18.0004 120.462H22.0004L22.0004 0.461671L18.0004 0.46167Z"></path>
        <path transform="translate(540, 300) rotate(0)" class="fill-8"
            d="M8.00037 0.46167L8.00037 120.462H12.0004L12.0004 0.46167L8.00037 0.46167Z"></path>
    </g>
    <g name="doubleStripes" mask="url(#mask)" mix-blend-mode="multiply">
        <rect transform="translate(540, 360) rotate(0)" width="60" height="120" fill="none"></rect>
        <path transform="translate(540, 360) rotate(0)" class="fill-7"
            d="M48.0004 120.462H52.0004L52.0004 0.461672L48.0004 0.461672L48.0004 120.462Z"></path>
        <path transform="translate(540, 360) rotate(0)" class="fill-7"
            d="M38.0004 0.461671L38.0004 120.462H42.0004L42.0004 0.461671L38.0004 0.461671Z"></path>
        <path transform="translate(540, 360) rotate(0)" class="fill-7"
            d="M28.0004 0.461671L32.0004 0.461671L32.0004 120.462H28.0004L28.0004 0.461671Z"></path>
        <path transform="translate(540, 360) rotate(0)" class="fill-7"
            d="M18.0004 0.46167L18.0004 120.462H22.0004L22.0004 0.461671L18.0004 0.46167Z"></path>
        <path transform="translate(540, 360) rotate(0)" class="fill-7"
            d="M8.00037 0.46167L8.00037 120.462H12.0004L12.0004 0.46167L8.00037 0.46167Z"></path>
    </g>
    <g name="doubleStripes" mask="url(#mask)" mix-blend-mode="multiply">
        <rect transform="translate(540, 420) rotate(0)" width="60" height="120" fill="none"></rect>
        <path transform="translate(540, 420) rotate(0)" class="fill-2"
            d="M48.0004 120.462H52.0004L52.0004 0.461672L48.0004 0.461672L48.0004 120.462Z"></path>
        <path transform="translate(540, 420) rotate(0)" class="fill-2"
            d="M38.0004 0.461671L38.0004 120.462H42.0004L42.0004 0.461671L38.0004 0.461671Z"></path>
        <path transform="translate(540, 420) rotate(0)" class="fill-2"
            d="M28.0004 0.461671L32.0004 0.461671L32.0004 120.462H28.0004L28.0004 0.461671Z"></path>
        <path transform="translate(540, 420) rotate(0)" class="fill-2"
            d="M18.0004 0.46167L18.0004 120.462H22.0004L22.0004 0.461671L18.0004 0.46167Z"></path>
        <path transform="translate(540, 420) rotate(0)" class="fill-2"
            d="M8.00037 0.46167L8.00037 120.462H12.0004L12.0004 0.46167L8.00037 0.46167Z"></path>
    </g>
    <g name="doubleStripes" mask="url(#mask)" mix-blend-mode="multiply">
        <rect transform="translate(540, 480) rotate(0)" width="60" height="120" fill="none"></rect>
        <path transform="translate(540, 480) rotate(0)" class="fill-8"
            d="M48.0004 120.462H52.0004L52.0004 0.461672L48.0004 0.461672L48.0004 120.462Z"></path>
        <path transform="translate(540, 480) rotate(0)" class="fill-8"
            d="M38.0004 0.461671L38.0004 120.462H42.0004L42.0004 0.461671L38.0004 0.461671Z"></path>
        <path transform="translate(540, 480) rotate(0)" class="fill-8"
            d="M28.0004 0.461671L32.0004 0.461671L32.0004 120.462H28.0004L28.0004 0.461671Z"></path>
        <path transform="translate(540, 480) rotate(0)" class="fill-8"
            d="M18.0004 0.46167L18.0004 120.462H22.0004L22.0004 0.461671L18.0004 0.46167Z"></path>
        <path transform="translate(540, 480) rotate(0)" class="fill-8"
            d="M8.00037 0.46167L8.00037 120.462H12.0004L12.0004 0.46167L8.00037 0.46167Z"></path>
    </g>
    <g name="doubleStripes" mask="url(#mask)" mix-blend-mode="multiply">
        <rect transform="translate(540, 540) rotate(0)" width="60" height="120" fill="none"></rect>
        <path transform="translate(540, 540) rotate(0)" class="fill-7"
            d="M48.0004 120.462H52.0004L52.0004 0.461672L48.0004 0.461672L48.0004 120.462Z"></path>
        <path transform="translate(540, 540) rotate(0)" class="fill-7"
            d="M38.0004 0.461671L38.0004 120.462H42.0004L42.0004 0.461671L38.0004 0.461671Z"></path>
        <path transform="translate(540, 540) rotate(0)" class="fill-7"
            d="M28.0004 0.461671L32.0004 0.461671L32.0004 120.462H28.0004L28.0004 0.461671Z"></path>
        <path transform="translate(540, 540) rotate(0)" class="fill-7"
            d="M18.0004 0.46167L18.0004 120.462H22.0004L22.0004 0.461671L18.0004 0.46167Z"></path>
        <path transform="translate(540, 540) rotate(0)" class="fill-7"
            d="M8.00037 0.46167L8.00037 120.462H12.0004L12.0004 0.46167L8.00037 0.46167Z"></path>
    </g>
</svg>